<svg width="559" height="559" viewBox="0 0 559 559" fill="none" xmlns="http://www.w3.org/2000/svg">
<path d="M401.292 236.534C381.474 234.839 365.219 257.546 382.167 279.656C384.602 282.9 387.684 285.602 391.219 287.591C394.753 289.58 398.662 290.813 402.698 291.212C407.639 291.632 412.614 291.074 417.34 289.571C422.065 288.067 426.448 285.647 430.238 282.449C434.028 279.252 437.151 275.338 439.428 270.933C441.705 266.528 443.092 261.717 443.509 256.776C444.336 247.013 442.105 237.235 437.125 228.798C432.146 220.36 424.664 213.681 415.717 209.686C408.229 206.517 400.044 205.355 391.97 206.316C375.195 207.992 340.143 215.021 317.378 245.008C309.303 255.401 303.592 267.428 300.641 280.254" stroke="#2C2C2C" stroke-width="10.425" stroke-miterlimit="10" stroke-linecap="round"/>
<path d="M156.387 236.533C159.547 236.264 162.73 236.619 165.753 237.58C168.775 238.54 171.579 240.087 174.004 242.131C176.43 244.175 178.428 246.677 179.886 249.494C181.345 252.31 182.234 255.387 182.503 258.547C182.855 262.505 182.421 266.495 181.226 270.285C180.032 274.075 178.101 277.593 175.544 280.635C172.986 283.677 169.854 286.184 166.325 288.012C162.796 289.841 158.941 290.954 154.981 291.288C150.034 291.708 145.053 291.147 140.323 289.639C135.593 288.131 131.207 285.704 127.416 282.498C123.625 279.292 120.503 275.37 118.231 270.956C115.958 266.542 114.578 261.723 114.17 256.775C113.644 250.602 114.34 244.387 116.217 238.483C118.094 232.579 121.116 227.103 125.109 222.367C129.103 217.631 133.99 213.728 139.493 210.881C144.995 208.035 151.004 206.3 157.177 205.776C164.572 205.236 197.872 203.599 227.166 227.674C243.459 241.236 254.974 259.664 260.023 280.252" stroke="#2C2C2C" stroke-width="10.425" stroke-miterlimit="10" stroke-linecap="round"/>
<path d="M180.615 326.246H378.065C378.33 326.246 378.588 326.154 378.794 325.987C379 325.82 379.142 325.586 379.196 325.326C379.251 325.066 379.214 324.796 379.092 324.56C378.97 324.324 378.77 324.137 378.527 324.031C369.801 320.209 362.048 314.47 355.843 307.242C349.638 300.013 345.141 291.48 342.685 282.276C342.62 282.032 342.474 281.817 342.271 281.667C342.068 281.517 341.82 281.439 341.568 281.448H218.461C218.217 281.445 217.979 281.519 217.781 281.662C217.584 281.804 217.437 282.006 217.363 282.238C214.481 291.451 209.671 299.944 203.252 307.154C196.833 314.363 188.952 320.123 180.134 324.05C179.9 324.163 179.711 324.352 179.598 324.585C179.484 324.819 179.453 325.084 179.509 325.338C179.564 325.592 179.704 325.819 179.904 325.984C180.105 326.149 180.356 326.241 180.615 326.246Z" stroke="#2C2C2C" stroke-width="10.425" stroke-miterlimit="10"/>
<path d="M145.929 152.405C165.323 137.595 181.482 137.652 187.337 138.076C219.385 140.329 250.065 174.939 256.229 224.744C256.253 225.01 256.195 225.278 256.063 225.51C255.93 225.742 255.73 225.928 255.489 226.044C255.248 226.159 254.978 226.198 254.714 226.155C254.45 226.112 254.206 225.989 254.014 225.803C247.059 218.978 239.396 212.915 231.153 207.719C206.885 192.542 196.177 196.876 179.383 181.449C175.03 177.443 169.907 171.819 159.064 162.728C153.652 158.241 149.03 154.697 145.929 152.405Z" stroke="#2C2C2C" stroke-width="10.425" stroke-miterlimit="10"/>
<path d="M412.751 152.405C393.338 137.595 377.198 137.652 371.343 138.076C339.295 140.329 308.596 174.939 302.452 224.744C302.428 225.01 302.486 225.278 302.618 225.51C302.75 225.742 302.95 225.928 303.191 226.044C303.432 226.159 303.703 226.198 303.966 226.155C304.23 226.112 304.475 225.989 304.667 225.803C311.637 218.984 319.321 212.934 327.586 207.757C351.853 192.581 362.561 196.914 379.355 181.487C383.708 177.481 388.812 171.857 399.674 162.767C405.028 158.241 409.651 154.697 412.751 152.405Z" stroke="#2C2C2C" stroke-width="10.425" stroke-miterlimit="10"/>
<path d="M278.146 248.3C278.222 248.567 278.382 248.801 278.603 248.968C278.823 249.135 279.092 249.225 279.369 249.225C279.646 249.225 279.915 249.135 280.136 248.968C280.356 248.801 280.517 248.567 280.592 248.3C285.291 233.201 290.819 215.116 296.866 194.585C308.711 154.371 311.542 142.161 306.496 128.467C300.872 113.425 288.45 104.219 279.417 99C270.924 104.046 259.522 112.79 253.918 126.888C248.313 140.986 251.24 154.121 263.008 195.818C268.902 216.695 274.082 234.53 278.146 248.3Z" stroke="#2C2C2C" stroke-width="10.425" stroke-miterlimit="10"/>
<path d="M217.305 343.578V421.83" stroke="#2C2C2C" stroke-width="10.425" stroke-miterlimit="10" stroke-linecap="round"/>
<path d="M343.609 343.578V421.83" stroke="#2C2C2C" stroke-width="10.425" stroke-miterlimit="10" stroke-linecap="round"/>
<path d="M301.508 343.578V459.001" stroke="#2C2C2C" stroke-width="10.425" stroke-miterlimit="10" stroke-linecap="round"/>
<path d="M401.292 236.534C381.474 234.839 365.219 257.546 382.167 279.656C384.602 282.899 387.684 285.601 391.219 287.59C394.753 289.58 398.662 290.813 402.698 291.212C407.638 291.632 412.612 291.074 417.336 289.57C422.061 288.066 426.442 285.646 430.231 282.448C434.019 279.25 437.14 275.336 439.415 270.931C441.69 266.526 443.075 261.716 443.49 256.776C444.174 249.887 443.302 242.933 440.939 236.427C438.576 229.921 434.782 224.029 429.836 219.185C424.891 214.342 418.921 210.67 412.367 208.443C405.813 206.216 398.843 205.488 391.97 206.315C375.195 207.991 340.143 215.021 317.378 245.008C309.303 255.4 303.592 267.428 300.641 280.253" stroke="#2C2C2C" stroke-width="10.425" stroke-miterlimit="10" stroke-linecap="round"/>
<path d="M156.387 236.533C159.547 236.264 162.73 236.619 165.753 237.58C168.775 238.54 171.579 240.087 174.004 242.131C176.43 244.175 178.428 246.677 179.886 249.494C181.345 252.31 182.234 255.387 182.503 258.547C182.855 262.505 182.421 266.495 181.226 270.285C180.032 274.075 178.101 277.593 175.544 280.635C172.986 283.677 169.854 286.184 166.325 288.012C162.796 289.841 158.941 290.954 154.981 291.288C150.034 291.708 145.053 291.147 140.323 289.639C135.593 288.131 131.207 285.704 127.416 282.498C123.625 279.292 120.503 275.37 118.231 270.956C115.958 266.542 114.578 261.723 114.17 256.775C113.644 250.602 114.34 244.387 116.217 238.483C118.094 232.579 121.116 227.103 125.109 222.367C129.103 217.631 133.99 213.728 139.493 210.881C144.995 208.035 151.004 206.3 157.177 205.776C164.572 205.236 197.872 203.599 227.166 227.674C243.459 241.236 254.974 259.664 260.023 280.252" stroke="#2C2C2C" stroke-width="10.425" stroke-miterlimit="10" stroke-linecap="round"/>
<path d="M180.615 326.246H378.065C378.33 326.246 378.588 326.154 378.794 325.987C379 325.82 379.142 325.586 379.196 325.326C379.251 325.066 379.214 324.796 379.092 324.56C378.97 324.324 378.77 324.137 378.527 324.031C369.801 320.209 362.048 314.47 355.843 307.242C349.638 300.013 345.141 291.48 342.685 282.276C342.62 282.032 342.474 281.817 342.271 281.667C342.068 281.517 341.82 281.439 341.568 281.448H218.461C218.217 281.445 217.979 281.519 217.781 281.662C217.584 281.804 217.437 282.006 217.363 282.238C214.481 291.451 209.671 299.944 203.252 307.154C196.833 314.363 188.952 320.123 180.134 324.05C179.9 324.163 179.711 324.352 179.598 324.585C179.484 324.819 179.453 325.084 179.509 325.338C179.564 325.592 179.704 325.819 179.904 325.984C180.105 326.149 180.356 326.241 180.615 326.246Z" stroke="#2C2C2C" stroke-width="10.425" stroke-miterlimit="10"/>
<path d="M145.929 152.405C165.323 137.595 181.482 137.652 187.337 138.076C219.385 140.329 250.065 174.939 256.229 224.744C256.253 225.01 256.195 225.278 256.063 225.51C255.93 225.742 255.73 225.928 255.489 226.044C255.248 226.159 254.978 226.198 254.714 226.155C254.45 226.112 254.206 225.989 254.014 225.803C247.059 218.978 239.396 212.915 231.153 207.719C206.885 192.542 196.177 196.876 179.383 181.449C175.03 177.443 169.907 171.819 159.064 162.728C153.652 158.241 149.03 154.697 145.929 152.405Z" stroke="#2C2C2C" stroke-width="10.425" stroke-miterlimit="10"/>
<path d="M412.751 152.405C393.338 137.595 377.198 137.652 371.343 138.076C339.295 140.329 308.596 174.939 302.452 224.744C302.428 225.01 302.486 225.278 302.618 225.51C302.75 225.742 302.95 225.928 303.191 226.044C303.432 226.159 303.703 226.198 303.966 226.155C304.23 226.112 304.475 225.989 304.667 225.803C311.633 218.979 319.317 212.929 327.586 207.757C351.853 192.581 362.561 196.914 379.355 181.487C383.708 177.481 388.812 171.857 399.674 162.767C405.028 158.241 409.631 154.697 412.751 152.405Z" stroke="#2C2C2C" stroke-width="10.425" stroke-miterlimit="10"/>
<path d="M278.146 248.3C278.222 248.567 278.382 248.801 278.603 248.968C278.823 249.135 279.092 249.225 279.369 249.225C279.646 249.225 279.915 249.135 280.136 248.968C280.356 248.801 280.517 248.567 280.592 248.3C285.291 233.201 290.819 215.116 296.866 194.585C308.692 154.371 311.542 142.161 306.496 128.467C300.872 113.425 288.45 104.219 279.417 99C270.924 104.046 259.522 112.79 253.918 126.888C248.313 140.986 251.24 154.121 263.008 195.818C268.902 216.695 274.082 234.53 278.146 248.3Z" stroke="#2C2C2C" stroke-width="10.425" stroke-miterlimit="10"/>
<path d="M217.305 343.578V421.83" stroke="#2C2C2C" stroke-width="10.425" stroke-miterlimit="10" stroke-linecap="round"/>
<path d="M343.609 343.578V421.83" stroke="#2C2C2C" stroke-width="10.425" stroke-miterlimit="10" stroke-linecap="round"/>
<path d="M301.508 343.578V459.001" stroke="#2C2C2C" stroke-width="10.425" stroke-miterlimit="10" stroke-linecap="round"/>
<path d="M259.407 343.578V459.001" stroke="#2C2C2C" stroke-width="10.425" stroke-miterlimit="10" stroke-linecap="round"/>
</svg>
