<svg width="559" height="559" viewBox="0 0 559 559" fill="none" xmlns="http://www.w3.org/2000/svg">
<path d="M227.725 347.209C214.43 369.384 214.4 396.911 227.725 418.39C231.937 425.228 237.409 431.204 243.852 435.999C260.16 448.094 281.327 451.531 300.901 446.129C324.116 439.757 346.036 429.373 365.672 415.447C412.662 382.054 432.539 338.007 439.735 319.259C440.743 316.739 441.509 309.522 437.901 306.62C436.948 305.883 435.797 305.448 434.595 305.37C435.351 303.596 436.55 300.743 437.901 297.205C445.844 276.432 448.515 259.367 450.823 244.258C450.903 243.704 451.992 236.487 452.546 226.791C453.06 217.911 452.839 212.004 450.228 205.835C449.22 203.376 447.144 198.518 444.503 198.669C442.487 198.78 440.572 201.814 439.665 206.017C443.374 193.659 437.165 183.308 430.412 182.048C425.796 181.181 420.433 184.497 416.764 189.547C414.184 182.874 407.32 179.387 401.454 181.02C398.886 181.767 396.65 183.367 395.114 185.556C393.484 187.873 392.65 190.656 392.735 193.488C392.824 201.455 392.02 209.407 390.336 217.195C389.295 221.989 387.921 226.704 386.224 231.306C385.911 230.984 380.589 225.601 373.302 227.184C371.477 227.622 369.758 228.42 368.245 229.531C366.733 230.643 365.457 232.044 364.492 233.655C361.833 249.549 355.61 264.635 346.289 277.782L345.956 278.246C340.066 286.431 332.359 293.14 323.44 297.846C314.521 302.552 304.633 305.127 294.551 305.37C282.365 305.642 266.551 308.525 251.734 318.957C241.526 326.253 233.279 335.958 227.725 347.209Z" stroke="#2C2C2C" stroke-width="5.79567" stroke-linejoin="round"/>
<path d="M434.645 305.411C429.142 303.637 421.804 306.954 417.51 309.675C405.143 317.446 399.206 330.358 397.694 334.158C392.574 347.009 378.2 366.503 338.014 395.925" stroke="#2C2C2C" stroke-width="5.79567" stroke-linecap="round" stroke-linejoin="round"/>
<path d="M439.715 206.016C438.536 220.241 436.476 234.379 433.547 248.349C428.959 270.257 422.297 291.678 413.65 312.323" stroke="#2C2C2C" stroke-width="5.79567" stroke-linecap="round" stroke-linejoin="round"/>
<path d="M416.814 189.547C416.473 210.307 413.888 230.969 409.104 251.172C404.89 268.902 400.818 285.442 389.499 304.331C382.707 315.682 374.425 326.072 364.875 335.225" stroke="#2C2C2C" stroke-width="5.79567" stroke-linecap="round" stroke-linejoin="round"/>
<path d="M386.637 230.207C384.94 245.551 381.24 260.607 375.63 274.99C369.062 291.726 359.842 307.297 348.325 321.103" stroke="#2C2C2C" stroke-width="5.79567" stroke-linecap="round" stroke-linejoin="round"/>
<path d="M321.151 318.402C336.276 326.22 348.877 338.161 357.497 352.844" stroke="#2C2C2C" stroke-width="5.79567" stroke-miterlimit="10" stroke-linecap="round"/>
<path d="M221.506 405.611C231.444 426.717 262.358 429.802 293.402 411.276C318.238 396.449 331.926 370.746 323.963 353.823C317.603 340.317 296.335 338.986 276.469 350.799C260.574 360.294 251.815 376.744 256.915 387.549C260.946 396.187 274.594 397.044 287.304 389.454C297.484 383.406 303.089 372.853 299.823 365.938C297.222 360.405 288.514 359.891 280.37 364.719C273.858 368.599 270.29 375.343 272.306 379.767" stroke="#2C2C2C" stroke-width="5.79567" stroke-miterlimit="10" stroke-linecap="round"/>
<path d="M330.686 211.208C343.981 189.033 344.001 161.506 330.686 140.027C326.452 133.175 320.951 127.192 314.478 122.398C298.17 110.303 277.003 106.886 257.439 112.319C234.229 118.693 212.312 129.077 192.678 143.001C145.688 176.394 125.812 220.441 118.605 239.189C117.597 241.708 116.831 248.925 120.439 251.838C121.397 252.566 122.546 253 123.745 253.088C122.989 254.862 121.8 257.715 120.439 261.252C112.497 282.026 109.836 299.091 107.528 314.19C107.437 314.744 106.358 321.961 105.804 331.657C105.29 340.537 105.512 346.454 108.112 352.612C109.12 355.082 111.196 359.93 113.837 359.789C115.853 359.678 117.768 356.634 118.685 352.431C116.488 366.441 123.09 376.511 129.4 377.216C135.548 377.891 141.102 369.636 141.586 368.901C144.156 375.583 151.02 379.071 156.886 377.438C159.455 376.687 161.693 375.088 163.236 372.902C164.856 370.576 165.69 367.793 165.615 364.96C165.465 352.06 167.668 339.241 172.116 327.131C172.429 327.464 177.761 332.847 185.038 331.254C185.391 331.173 185.724 331.093 186.046 330.992C188.194 330.28 190.111 329.003 191.595 327.295C193.079 325.587 194.077 323.511 194.483 321.285C197.437 306.668 203.418 292.832 212.041 280.665L212.374 280.202C218.261 272.013 225.967 265.302 234.887 260.595C243.807 255.889 253.696 253.316 263.779 253.078C275.965 252.796 291.789 249.913 306.596 239.481C316.833 232.185 325.108 222.473 330.686 211.208Z" fill="#2C2C2C"/>
<path d="M120.167 255.367C125.993 255.367 137.302 251.083 140.941 248.785C153.288 240.993 159.225 228.112 160.737 224.302C165.867 211.441 180.241 191.947 220.437 162.535" stroke="#FEFEFC" stroke-width="5.79567" stroke-miterlimit="10" stroke-linecap="round"/>
<path d="M116.619 361.984C117.91 349.072 121.911 324.106 124.854 310.105C129.447 288.197 136.106 266.773 144.741 246.121" stroke="#FEFEFC" stroke-width="5.79567" stroke-miterlimit="10" stroke-linecap="round"/>
<path d="M141.112 372.945C141.787 348.492 145.87 321.62 149.287 307.277C153.49 289.548 157.552 273.007 168.871 254.108C175.682 242.754 183.984 232.363 193.555 223.215" stroke="#FEFEFC" stroke-width="5.79567" stroke-miterlimit="10" stroke-linecap="round"/>
<path d="M173.921 329.207C175.15 317.747 176.34 299.846 182.791 283.406C189.354 266.676 198.563 251.11 210.066 237.303" stroke="#FEFEFC" stroke-width="5.79567" stroke-miterlimit="10" stroke-linecap="round"/>
<path d="M234.851 238.416C219.721 230.606 207.117 218.663 198.505 203.975" stroke="#FEFEFC" stroke-width="5.79567" stroke-miterlimit="10" stroke-linecap="round"/>
<path d="M339.092 150.069C329.144 128.963 295.841 129.91 264.797 148.446C239.961 163.273 226.273 188.976 234.236 205.899C240.596 219.405 261.864 220.736 281.73 208.923C297.625 199.428 306.384 182.978 301.284 172.173C297.252 163.535 283.605 162.678 270.895 170.268C260.715 176.316 255.11 186.869 258.376 193.783C260.977 199.317 269.685 199.831 277.829 195.003C284.341 191.112 287.909 184.379 285.843 179.954" stroke="#FEFEFC" stroke-width="5.79567" stroke-miterlimit="10" stroke-linecap="round"/>
</svg>
