<svg width="559" height="559" viewBox="0 0 559 559" fill="none" xmlns="http://www.w3.org/2000/svg">
<path d="M174 242.746L214.714 277.31L174 242.746Z" fill="#2C2C2C"/>
<path d="M174 175.468L214.939 140.92L174 175.468Z" fill="#2C2C2C"/>
<path d="M398.159 130.264C375.91 109.432 342.135 99 293.791 99H174V175.469L211.784 143.465C212.62 142.753 213.671 142.343 214.769 142.299C215.866 142.255 216.946 142.581 217.837 143.223L224.003 147.65C249.954 166.035 278.948 185.289 311.483 199.424C322.994 204.254 334.343 207.876 344.099 209.083C303.949 214.959 248.279 252.759 217.837 275.088C216.951 275.755 215.862 276.096 214.754 276.055C213.646 276.014 212.586 275.593 211.751 274.863L174 242.826V459L213.667 449.051L253.334 459V340.706H287.496C323.911 340.706 352.723 334.927 373.93 323.368C395.116 311.809 408.752 296.564 417.864 277.648C427.025 258.463 431.694 237.442 431.515 216.183C431.515 179.757 420.396 151.117 398.159 130.264Z" fill="#2C2C2C"/>
<path d="M187.04 219.742C192.863 219.742 197.584 215.021 197.584 209.197C197.584 203.373 192.863 198.652 187.04 198.652C181.216 198.652 176.495 203.373 176.495 209.197C176.495 215.021 181.216 219.742 187.04 219.742Z" fill="#2C2C2C"/>
<path d="M361.244 209.082H214.713" stroke="#2C2C2C" stroke-width="10.8268" stroke-miterlimit="10"/>
</svg>
