<svg xmlns="http://www.w3.org/2000/svg" viewBox="0 0 380.69 142.26"><defs><style>.cls-1,.cls-2,.cls-4,.cls-5{fill:#2c2c2c;}.cls-1,.cls-3,.cls-4{stroke:#2c2c2c;}.cls-1,.cls-3,.cls-4,.cls-6{stroke-miterlimit:10;}.cls-1{stroke-width:1.3px;}.cls-2{font-size:26.44px;font-family:GlacialIndifference-Regular, Glacial Indifference;letter-spacing:0.04em;}.cls-3,.cls-6{fill:#fefefc;}.cls-3{stroke-width:2.2px;}.cls-6{stroke:#fefefc;stroke-width:0.69px;}</style></defs><title>logotipo-4</title><g id="Capa_2" data-name="Capa 2"><g id="Capa_1-2" data-name="Capa 1"><path class="cls-1" d="M19,85.71c-2.87,0-4.9-.43-6.11-1.29a5,5,0,0,1-2.15-3.29,25.12,25.12,0,0,1-.33-4.1V45.83a21.13,21.13,0,0,1,.38-4.15,4.92,4.92,0,0,1,2.2-3.2q1.8-1.24,6.2-1.24t6.25,1.67q1.95,1.67,1.95,5.39l-1.62-.48a23.68,23.68,0,0,1,2.82-3.34A13.66,13.66,0,0,1,32,38.14a10.21,10.21,0,0,1,4.58-1,18.38,18.38,0,0,1,5.44.77,14.38,14.38,0,0,1,4.54,2.33,16,16,0,0,1,3.57,3.87,30.58,30.58,0,0,1,2.86-2.86,18.87,18.87,0,0,1,4.35-2.87A12.79,12.79,0,0,1,63,37.14,15.91,15.91,0,0,1,72.55,40a17.49,17.49,0,0,1,6,8.3,37.56,37.56,0,0,1,2.05,13.17V77a21.35,21.35,0,0,1-.39,4.1A5.09,5.09,0,0,1,78,84.42q-1.82,1.29-6.2,1.29t-6.11-1.33A5.09,5.09,0,0,1,63.59,81a24.25,24.25,0,0,1-.34-4.11V61.38a11.46,11.46,0,0,0-.52-3.77,4.72,4.72,0,0,0-1.53-2.24,4.05,4.05,0,0,0-2.53-.77,4.67,4.67,0,0,0-2.62.67,3.7,3.7,0,0,0-1.43,2.15,15,15,0,0,0-.43,4.06V77a22.17,22.17,0,0,1-.38,4.1,5.14,5.14,0,0,1-2.2,3.29q-1.81,1.29-6.2,1.29c-2.87,0-4.9-.44-6.11-1.33A5.11,5.11,0,0,1,37.15,81a25.33,25.33,0,0,1-.33-4.11V61.38a12.93,12.93,0,0,0-.48-3.82,4.2,4.2,0,0,0-1.48-2.24,4.37,4.37,0,0,0-2.62-.72,3.9,3.9,0,0,0-2.86,1A4.85,4.85,0,0,0,28.09,58a15.8,15.8,0,0,0-.34,3.34V77.12a21.53,21.53,0,0,1-.38,4.11,4.92,4.92,0,0,1-2.19,3.24Q23.37,85.72,19,85.71Z"/><path class="cls-1" d="M136.53,41.82a5.19,5.19,0,0,0-2.14-3.29q-1.77-1.29-6.07-1.29c-2.86,0-5,.44-6.34,1.33a4,4,0,0,0-1.86,2.62c-.26-.25-.56-.52-.91-.81a15.09,15.09,0,0,0-3.62-2.1,14.36,14.36,0,0,0-5.49-1,18.08,18.08,0,0,0-8.21,2,24.67,24.67,0,0,0-7,5.34,26.45,26.45,0,0,0-5,7.69,22.75,22.75,0,0,0-1.81,9,23.4,23.4,0,0,0,1.81,9.11,27.3,27.3,0,0,0,4.92,7.78,23.11,23.11,0,0,0,7.06,5.38,18.28,18.28,0,0,0,8.25,2,15.43,15.43,0,0,0,5.63-.92,14.49,14.49,0,0,0,3.67-2c.27-.21.5-.39.71-.58a4.54,4.54,0,0,0,1.77,2.06c1.37,1,3.48,1.44,6.35,1.44s5-.42,6.16-1.25A5,5,0,0,0,136.53,81a21.5,21.5,0,0,0,.38-4.1v-31A21.5,21.5,0,0,0,136.53,41.82ZM118.17,64.77a7.41,7.41,0,0,1-2.39,2.52,5.93,5.93,0,0,1-3.3,1,6.81,6.81,0,0,1-3.53-1,7.85,7.85,0,0,1-2.62-2.47,6.05,6.05,0,0,1-1-3.34,6.56,6.56,0,0,1,1-3.49,7.65,7.65,0,0,1,2.53-2.53,6.64,6.64,0,0,1,3.48-1,6.4,6.4,0,0,1,3.44,1A7.45,7.45,0,0,1,118.17,58a6.63,6.63,0,0,1,.9,3.43A6.72,6.72,0,0,1,118.17,64.77Z"/><path class="cls-1" d="M192.11,41.49a4.94,4.94,0,0,0-2-3.21c-1.15-.82-3.13-1.23-5.92-1.23A11.92,11.92,0,0,0,178,38.28a5,5,0,0,0-2.21,3.2A11,11,0,0,0,173,39a12.7,12.7,0,0,0-6.92-1.72,17.41,17.41,0,0,0-8,2,25,25,0,0,0-7,5.25,24.73,24.73,0,0,0-4.86,7.48,22,22,0,0,0-1.78,8.69,22.77,22.77,0,0,0,1.78,8.92,25.64,25.64,0,0,0,4.81,7.58,23.12,23.12,0,0,0,6.92,5.25,17.89,17.89,0,0,0,8.06,1.91q5.64,0,8.68-2.82a10.35,10.35,0,0,0,.86-.9v1.15a8.81,8.81,0,0,1-.57,3.19,9.39,9.39,0,0,1-1.47,2.58,6.78,6.78,0,0,1-2.15,1.71,5.86,5.86,0,0,1-2.68.62,11.57,11.57,0,0,1-4.24-.66,13.24,13.24,0,0,1-2.82-1.49c-.77-.53-1.51-1-2.24-1.47a4.82,4.82,0,0,0-2.53-.66,4.12,4.12,0,0,0-2.76,1,27.77,27.77,0,0,0-2.67,2.58,10.74,10.74,0,0,0-2.15,3.14,8.41,8.41,0,0,0-.72,3.53,5,5,0,0,0,1.81,3.48,19.62,19.62,0,0,0,4.77,3.3,31.81,31.81,0,0,0,6.44,2.43,27.29,27.29,0,0,0,6.83.9,23.72,23.72,0,0,0,8.39-1.57,25.7,25.7,0,0,0,7.73-4.58,22.22,22.22,0,0,0,7.83-17.41V45.54A24.32,24.32,0,0,0,192.11,41.49Zm-18,22.56a7.39,7.39,0,0,1-2.39,2.49,6.07,6.07,0,0,1-3.28.95,6.52,6.52,0,0,1-3.39-.95,7.44,7.44,0,0,1-2.53-2.49,6,6,0,0,1-1-3.25,6.25,6.25,0,0,1,.91-3.33A7.12,7.12,0,0,1,164.87,55a6.16,6.16,0,0,1,3.34-1,6.72,6.72,0,0,1,3.44.91,6.93,6.93,0,0,1,2.43,2.44A6.51,6.51,0,0,1,175,60.8,6.22,6.22,0,0,1,174.08,64.05Z"/><path class="cls-1" d="M250.08,45.83V77.22a20.83,20.83,0,0,1-.38,4,5,5,0,0,1-2.2,3.15c-1.21.82-3.25,1.24-6.1,1.24a13.36,13.36,0,0,1-4.91-.72A5.45,5.45,0,0,1,234,83.09a4.74,4.74,0,0,1-.87-2c-.54.53-1.06,1-1.57,1.42A15.75,15.75,0,0,1,228,84.61a11.67,11.67,0,0,1-4.73.92,20.45,20.45,0,0,1-8.54-1.82,21.19,21.19,0,0,1-6.92-5.1,23.93,23.93,0,0,1-4.57-7.69,27.3,27.3,0,0,1-1.63-9.54V45.83a21.37,21.37,0,0,1,.39-4.16,5.08,5.08,0,0,1,2.19-3.24c1.21-.86,3.25-1.28,6.11-1.28s5,.42,6.15,1.28a5.18,5.18,0,0,1,2.15,3.29,22.94,22.94,0,0,1,.38,4.2V61.38a7.93,7.93,0,0,0,.81,3.72,5.54,5.54,0,0,0,2.38,2.34,8,8,0,0,0,3.68.81,7.23,7.23,0,0,0,3.62-.86A6,6,0,0,0,231.85,65a7.35,7.35,0,0,0,.86-3.63V45.73a21.19,21.19,0,0,1,.39-4.15,4.89,4.89,0,0,1,2.19-3.19c1.21-.84,3.24-1.24,6.11-1.24s5,.42,6.15,1.28a5.22,5.22,0,0,1,2.15,3.29A22.53,22.53,0,0,1,250.08,45.83Z"/><path class="cls-1" d="M268.33,85.71c-2.86,0-4.9-.43-6.1-1.29a4.92,4.92,0,0,1-2.15-3.29,25.12,25.12,0,0,1-.33-4.1V45.92a20.61,20.61,0,0,1,.38-4.05,5.08,5.08,0,0,1,2.19-3.25q1.81-1.29,6.11-1.29t6.06,1.29a5.19,5.19,0,0,1,2.14,3.29,22,22,0,0,1,.39,4.2v31a21.53,21.53,0,0,1-.39,4.11,5,5,0,0,1-2.14,3.24Q272.72,85.72,268.33,85.71Z"/><path class="cls-1" d="M323.74,46.12q0,4-1.29,5.81a5.48,5.48,0,0,1-3.25,2.29,16.78,16.78,0,0,1-4.14.48l-5-.11V65.68a9.54,9.54,0,0,0,.15,1.76,2.46,2.46,0,0,0,.43,1.09,1.62,1.62,0,0,0,.77.58,3.28,3.28,0,0,0,1.23.19,23.71,23.71,0,0,1,4.44.38,4.63,4.63,0,0,1,3.06,2q1.09,1.62,1.09,5.43c0,2.87-.44,4.9-1.34,6.11a5.1,5.1,0,0,1-3.34,2.15,24.44,24.44,0,0,1-4,.33,29.77,29.77,0,0,1-8.78-1.15A14.07,14.07,0,0,1,294,75a27.35,27.35,0,0,1-1.18-8.48V54.42h-2.39c-2.16-.13-3.66-.84-4.48-2.1s-1.24-3.38-1.24-6.31c0-2.72.51-4.78,1.53-6.15a5.31,5.31,0,0,1,4.57-2h2v-8.3a21.31,21.31,0,0,1,.37-4.05,4.79,4.79,0,0,1,2.21-3.06c1.2-.8,3.24-1.19,6.1-1.19s4.81.43,6,1.29a5.14,5.14,0,0,1,2.21,3.29,23.24,23.24,0,0,1,.37,4.1v7.62l5.06-.18a21.4,21.4,0,0,1,4.05.38,5.13,5.13,0,0,1,3.25,2.2C323.31,41.12,323.74,43.18,323.74,46.12Z"/><path class="cls-1" d="M354.85,86.57A24.25,24.25,0,0,1,346,84.81a28.29,28.29,0,0,1-8.25-5.06,24.76,24.76,0,0,1-6-7.92,23.38,23.38,0,0,1-2.24-10.35,24.17,24.17,0,0,1,2-9.83A26.22,26.22,0,0,1,345,38.1a23.62,23.62,0,0,1,9.69-2,24.6,24.6,0,0,1,12.78,3.39,26,26,0,0,1,9.16,9.11A24.39,24.39,0,0,1,380,61.38a24,24,0,0,1-2.29,10.69,25,25,0,0,1-6,7.92,26.57,26.57,0,0,1-8.16,4.91A24.76,24.76,0,0,1,354.85,86.57Zm-.19-17.46a9.3,9.3,0,0,0,3.29-.72A7.64,7.64,0,0,0,361.19,66a7.25,7.25,0,0,0,1.39-4.68,8,8,0,0,0-1-4.1,6.89,6.89,0,0,0-2.81-2.67,9,9,0,0,0-4.2-.95,7.44,7.44,0,0,0-3.82,1A7.69,7.69,0,0,0,348,57.32a7.8,7.8,0,0,0-1.05,4.06A7.25,7.25,0,0,0,348.26,66a7.4,7.4,0,0,0,3.15,2.43A8.93,8.93,0,0,0,354.66,69.11Z"/><text class="cls-2" transform="translate(155.87 135.6)">studio</text><path class="cls-3" d="M39.08,25.41,51.7,30.58a1.08,1.08,0,0,1,.68,1,1.1,1.1,0,0,1-.63,1A97.21,97.21,0,0,1,29.51,47.45,97.59,97.59,0,0,1,2.66,55.93a1.09,1.09,0,0,1-1.49-1.35L5.9,41.25"/><path class="cls-3" d="M9.76,42.3c-1.86,0-3.15-.35-3.86-1a5.28,5.28,0,0,1-1.16-3.66L4.2,6.26A4.16,4.16,0,0,1,5,3.61,6.26,6.26,0,0,1,7.47,1.67a5.51,5.51,0,0,1,2.93-.55,4.45,4.45,0,0,1,2.5,1l24,20.18a5.52,5.52,0,0,1,2.21,3.11c.12.93-.45,2.18-1.73,3.76A77.46,77.46,0,0,1,24.6,36.91,78.07,78.07,0,0,1,9.76,42.3Z"/><path class="cls-4" d="M5.34,17.73l1.56,0a1.16,1.16,0,0,0,.94-.53L10,13.86a.21.21,0,0,1,.38,0l1.31,3.75a1.16,1.16,0,0,0,.79.73l3.83,1a.22.22,0,0,1,.07.38l-3.15,2.4a1.16,1.16,0,0,0-.46,1l.19,4a.21.21,0,0,1-.33.19L9.39,25.08a1.19,1.19,0,0,0-1.08-.14L5.57,26l-.11-3.7Z"/><path class="cls-5" d="M269.32,14.62l2.3,4.67a1.51,1.51,0,0,0,1.15.83l5.15.75a1,1,0,0,1,.58,1.78l-3.73,3.63a1.55,1.55,0,0,0-.44,1.36l.88,5.12a1,1,0,0,1-1.51,1.1l-4.61-2.42a1.55,1.55,0,0,0-1.42,0l-4.61,2.42a1,1,0,0,1-1.51-1.1l.88-5.12a1.52,1.52,0,0,0-.44-1.36l-3.72-3.63a1,1,0,0,1,.57-1.78l5.15-.75a1.51,1.51,0,0,0,1.15-.83l2.31-4.67A1,1,0,0,1,269.32,14.62Z"/><polygon class="cls-6" points="277.34 46.11 259.42 46.11 259.42 49.36 277.35 49.36 277.34 46.11"/></g></g></svg>