<svg xmlns="http://www.w3.org/2000/svg" xmlns:xlink="http://www.w3.org/1999/xlink" viewBox="0 0 256.7 227.01"><defs><style>.cls-1,.cls-28{fill:#f18652;}.cls-1,.cls-10,.cls-11,.cls-16,.cls-17,.cls-18,.cls-19,.cls-20,.cls-21,.cls-22,.cls-23,.cls-24,.cls-26,.cls-27,.cls-3,.cls-31,.cls-4,.cls-5,.cls-6,.cls-7,.cls-8,.cls-9{stroke:#2c2c2c;}.cls-1,.cls-10,.cls-11,.cls-20,.cls-23,.cls-24,.cls-26,.cls-3,.cls-31,.cls-4,.cls-5,.cls-6{stroke-linecap:round;}.cls-1,.cls-11,.cls-20,.cls-23,.cls-24,.cls-31,.cls-4,.cls-5{stroke-linejoin:round;}.cls-11,.cls-2,.cls-3,.cls-5{fill:#fefefc;}.cls-10,.cls-16,.cls-17,.cls-18,.cls-19,.cls-21,.cls-22,.cls-26,.cls-27,.cls-3,.cls-6,.cls-7,.cls-8,.cls-9{stroke-miterlimit:10;}.cls-3,.cls-6{stroke-width:2.99px;}.cls-4,.cls-6{fill:#f3ede2;}.cls-4,.cls-5{stroke-width:2.98px;}.cls-13,.cls-7{fill:#2c2c2c;}.cls-7,.cls-8,.cls-9{stroke-width:3px;}.cls-12,.cls-8{fill:#79bce8;}.cls-9{fill:#fff;}.cls-10,.cls-16,.cls-17,.cls-18,.cls-19,.cls-20,.cls-24,.cls-26,.cls-31{fill:none;}.cls-10{stroke-width:2px;}.cls-11{stroke-width:0.35px;}.cls-14{fill:#f6e0c3;}.cls-15{fill:#1d1d1b;}.cls-16,.cls-20,.cls-23{stroke-width:2.06px;}.cls-17,.cls-21{stroke-width:0.78px;}.cls-18{stroke-width:0.82px;}.cls-19{stroke-width:1.38px;}.cls-21,.cls-22,.cls-23,.cls-30{fill:#fdcb63;}.cls-22{stroke-width:0.54px;}.cls-24{stroke-width:1.67px;}.cls-25{fill:#f2ede1;}.cls-26{stroke-width:0.98px;}.cls-27{fill:#e95b6f;stroke-width:0.98px;}.cls-29{clip-path:url(#clip-path);}</style><clipPath id="clip-path"><path class="cls-1" d="M155.29,75c.51.55,5.39-3.14,7.36-8.18l0-.08a12.59,12.59,0,0,0-.25-9.57c-.36-.84-.76-1.69-1.19-2.56q-1.19-2.37-2.45-4.42a58.71,58.71,0,0,0-4.34-6.12.14.14,0,0,0-.24.11,15.75,15.75,0,0,1,0,4.92,14.37,14.37,0,0,1-3.76,7.74A12.05,12.05,0,0,0,147,62a11.84,11.84,0,0,0-.58,4.88,20.8,20.8,0,0,0,1.38,3.9,21.16,21.16,0,0,0,2,3.45A4.54,4.54,0,0,1,155.29,75Z"/></clipPath></defs><title>painting_1</title><g id="Capa_2" data-name="Capa 2"><g id="Capa_1-2" data-name="Capa 1"><path class="cls-2" d="M235.67,36.42H168a21.22,21.22,0,0,0-4,.39,3.92,3.92,0,0,0-.25-.32,12.14,12.14,0,0,0-21.39,9.61,3.76,3.76,0,0,1,0,1.18,2.41,2.41,0,0,1-.16.54,1.42,1.42,0,0,1-.08.18,2.67,2.67,0,0,1-.25.43A23.93,23.93,0,0,0,134.47,68a11.53,11.53,0,0,0,.31,1.85,33.83,33.83,0,0,0,2.05,5.85c-.14.38-.28.77-.39,1.16-.36,1.39-.65,2.48-.89,3.36A18,18,0,0,0,123.76,88l-.22.34a25.16,25.16,0,0,0-3.22,7.52,16.52,16.52,0,0,0-4.39,4.47c-4.64,4.28-9.12,7.08-10.88,7.6a28.12,28.12,0,0,0,.34-15.18l0-.19A38.73,38.73,0,0,0,101,82.27a68.9,68.9,0,0,0-.38-6.91c-.17-1.69-.41-3.37-.71-5,.14-.08.29-.15.43-.24a25.06,25.06,0,0,0,9.77-11.41,11.82,11.82,0,0,0,.65-2.07,49.81,49.81,0,0,0,9.66-8.76,18.48,18.48,0,0,0-17-30.21,11.79,11.79,0,0,0-3.61,1.19l-15.51,8-3.82-7.78a36,36,0,0,0-5.78-8.4l-.89-1.18A11.89,11.89,0,0,0,69,5.76l-.85-.59c-.4-.26-.81-.52-1.2-.75a31.78,31.78,0,0,0-30.59-1,54.3,54.3,0,0,0-9,5.72A57.36,57.36,0,0,0,7.72,39.1a13.21,13.21,0,0,0,17,16l-.1,2.61-15,7.75a12.88,12.88,0,0,0-1.19.71C.24,71.77-2.43,82.59,2.4,90.83a17.78,17.78,0,0,0,10.09,8,23.16,23.16,0,0,0,2.24,3.1,21.9,21.9,0,0,0,4.46,3.92,12,12,0,0,0-.81,6.25c-.93.46-1.86.93-2.77,1.43a23.58,23.58,0,0,0-11,28.72l0,.11a45,45,0,0,0,2.75,6.19,18.2,18.2,0,0,0-.78,18.41c.12.22.24.43.37.64a27.13,27.13,0,0,0,16,12l.35.08c-.29,1.43-.6,2.86-.92,4.3a38.28,38.28,0,0,0-11.16,4l-.59.3a9.06,9.06,0,0,0-1,.54C2.48,193.34-1.06,202.36.91,211.28a20.18,20.18,0,0,0,6.46,10.87A19.81,19.81,0,0,0,20.49,227H44.15a20.24,20.24,0,0,0,15.21-6.89c.34-.38.65-.78,1-1.18.14.16.27.33.41.48a20.24,20.24,0,0,0,15.21,6.89H99.59a19.86,19.86,0,0,0,13.13-4.85,20.28,20.28,0,0,0,6.45-10.88c2-8.92-1.57-17.93-8.82-22.43q-.46-.28-1-.54l-.59-.3a42.62,42.62,0,0,0-6.31-2.77,48.2,48.2,0,0,0-.83-7.37,47.58,47.58,0,0,0-5.86-15.44l.13-.46a43.18,43.18,0,0,1,2.1-5.68,12.47,12.47,0,0,0,.72-2.19,14.24,14.24,0,0,0,.57-2.7c.14-1.37.26-2.76.36-4.15a37.43,37.43,0,0,0,8.06.87l1.62,0a42.66,42.66,0,0,0,28.58-12.24c.53-.2,1.05-.43,1.56-.68l1.59.28-1.63,19.41c0,.34,0,.67,0,1a21,21,0,0,0,19.8,21,14.07,14.07,0,0,0,1.69.59l13.87,3.65-12.86,26.28a12,12,0,1,0,21.56,10.55L190.92,202l5.79,14.41A12,12,0,0,0,219,207.46l-10.62-26.41L213,180l8.5,33.21a12,12,0,0,0,11.61,9,12.16,12.16,0,0,0,3-.37,12,12,0,0,0,8.66-14.6l-8.38-32.76a21.06,21.06,0,0,0,12.75-18.77l7.54-97.34q0-.47,0-.93A21,21,0,0,0,235.67,36.42Z"/><line class="cls-3" x1="228.1" y1="164.21" x2="160.45" y2="164.21"/><path class="cls-4" d="M164,165.14l28,7.38,32.07-7.38a.47.47,0,0,0-.1-.93H164.09A.47.47,0,0,0,164,165.14Z"/><path class="cls-5" d="M192,172.52,172.7,212Z"/><path class="cls-5" d="M192,172.52,207.84,212Z"/><line class="cls-3" x1="233.13" y1="210.23" x2="204.41" y2="97.95"/><path class="cls-6" d="M151.41,155.18a9,9,0,0,0,9,9H228.1a9,9,0,0,0,9-9l7.57-97.71a9,9,0,0,0-9-9H168a9,9,0,0,0-9,9l-2.81,41Z"/><path class="cls-7" d="M40.12,148.14a2.75,2.75,0,0,0,1.23,3.25,44.1,44.1,0,0,0,45.32-.79,1.51,1.51,0,0,0,.71-1.13,109.25,109.25,0,0,0,.56-13.74c-.06-2.71-.22-5.29-.44-7.72a.68.68,0,0,1,1.14-.56c2.93,2.79,10.11,8.4,20.2,8,9.48-.41,19.59-5.12,24.34-13.71a3,3,0,0,0-.75-3.81c-.91-.66-1.22-2.94-2.41-3.6-1.74-1-2.05-3.11-2.23-5a1.64,1.64,0,0,0-2.77-1c-3.74,3.58-11.49,10-17.47,11.42a23.4,23.4,0,0,1-16.44-2.48,5.25,5.25,0,0,0-4.65-.21,43.44,43.44,0,0,1-36.09-.52,5.5,5.5,0,0,0-2.88-.5A69.11,69.11,0,0,0,33,119a68,68,0,0,0-11.63,5,11.67,11.67,0,0,0-5.45,14.14l0,.12a34.46,34.46,0,0,0,5,9.13,3.63,3.63,0,0,0,3.7,1.31q2.82-.63,5.81-1.44c.87-.24,1.72-.48,2.56-.73a3.66,3.66,0,0,0,2.32-4.92q-1.63-3.93-3.28-7.85a23.61,23.61,0,0,1,5.71-2.58,23.28,23.28,0,0,1,5.33-.92,1.2,1.2,0,0,1,1.26,1.4c-.6,3.41-1.41,7.08-2.49,10.93Q41,145.52,40.12,148.14Z"/><path class="cls-8" d="M86.82,150.5a.17.17,0,0,1,.25.21,54.61,54.61,0,0,0-2.66,7.2q-.66,2.26-1.08,4.32a4.41,4.41,0,0,0,.72,3.43,36,36,0,0,1,6,26.43,4.33,4.33,0,0,1-3.67,3.61,50.22,50.22,0,0,1-7.59.46,48.48,48.48,0,0,1-5.2-.34,4.37,4.37,0,0,1-3.86-4.35,73.94,73.94,0,0,0-.42-7.84,72.93,72.93,0,0,0-2.11-11.24l-8.9-.68a88.89,88.89,0,0,0-4.42,12.08,87.71,87.71,0,0,0-2.44,11.36A2.17,2.17,0,0,1,49,197a59,59,0,0,0-14.31-.12,2.16,2.16,0,0,1-2.34-2.67c1-4,2-8.25,2.88-12.64a244.61,244.61,0,0,0,4.09-30.12.74.74,0,0,1,1.12-.58,44,44,0,0,0,46.38-.34Z"/><path class="cls-9" d="M24.61,148.75l-1.92,3.48a6.54,6.54,0,0,0-5.14,2.68,6.24,6.24,0,0,0-.32,6.43A15,15,0,0,0,26,168c7.69,2,13.66-3.49,14-3.85a13,13,0,0,0,3.11-5.57,13.55,13.55,0,0,0-1.4-9.86A5.74,5.74,0,0,0,33,146.58Z"/><path class="cls-10" d="M22.69,152.23l2.65,1.1a8.89,8.89,0,0,0,5.71.73"/><path class="cls-10" d="M24.46,161.53a12.89,12.89,0,0,1-.24-3.94,9.86,9.86,0,0,1,1.21-4.15"/><path class="cls-10" d="M41.76,148.7a21.28,21.28,0,0,1-2.19,2.06,22,22,0,0,1-2.65,1.85"/><path class="cls-7" d="M34.69,196.85a17.68,17.68,0,0,0-9.85-1.12,28.72,28.72,0,0,0-8.79,3.33c-3.15,1.95-4.2,6.17-3.43,9.64a8.38,8.38,0,0,0,2.66,4.45,7.84,7.84,0,0,0,5.2,1.87H44.14a8.14,8.14,0,0,0,8.14-9.09l0-.12A21.64,21.64,0,0,0,49,197Z"/><path class="cls-7" d="M85.38,196.15A17.7,17.7,0,0,1,95.23,195a28.87,28.87,0,0,1,8.79,3.32c3.15,1.95,4.19,6.17,3.42,9.64a8.29,8.29,0,0,1-2.65,4.46,7.89,7.89,0,0,1-5.21,1.86H75.93a8.14,8.14,0,0,1-8.14-9.09v-.12a21.62,21.62,0,0,1,3.27-8.84Z"/><path class="cls-11" d="M67.52,125.82l1.86,3.79A2.56,2.56,0,0,0,71.31,131l4.18.61a.28.28,0,0,1,.15.48l-3,2.94a2.55,2.55,0,0,0-.74,2.26l.72,4.17a.28.28,0,0,1-.41.29l-3.74-2a2.49,2.49,0,0,0-2.37,0l-3.74,2a.28.28,0,0,1-.41-.29l.72-4.17a2.58,2.58,0,0,0-.74-2.26l-3-2.94a.28.28,0,0,1,.15-.48l4.18-.61a2.55,2.55,0,0,0,1.92-1.39L67,125.82A.29.29,0,0,1,67.52,125.82Z"/><path class="cls-12" d="M111.87,32.58a6.5,6.5,0,0,1-.66,7.52,37.72,37.72,0,0,1-23.9,13v.37l-1.09,0,3-3.35a14.34,14.34,0,0,1,1.33-1.25,3,3,0,0,0-2.78-5.13Q72.47,52.06,57.21,60.39c-10.13,5.52-19.44,10.89-29.56,16.4a.12.12,0,0,0,0,.16l-.28.18a13.43,13.43,0,0,0-4.38,4.79,14,14,0,0,0-1.55,5.52l-2.66.23a6.36,6.36,0,0,1-6-2.88c-1.55-2.65-.67-6.53,2.43-8.63l21.17-11,42.47-22,26.41-13.68A6.48,6.48,0,0,1,111.87,32.58Z"/><path class="cls-13" d="M87.3,53.52l11.74.4a12.91,12.91,0,0,1-13.93,7.77c-.08-.2-.15-.39-.23-.57L72.79,58l-.87.39-.24-.06L42,71.85c-.44,1.24-3.28,3.93-2.62,7.46a14.74,14.74,0,0,0,2.56,6,.37.37,0,0,1-.41.56,50.17,50.17,0,0,1-7.09-2.78c-4-1.92-4.46-4.14-6.77-6.07a.06.06,0,0,1,0,0,.12.12,0,0,1,0-.16c10.12-5.51,19.43-10.88,29.56-16.4s20.36-11.1,30.55-16.64a3,3,0,0,1,2.78,5.13,14.34,14.34,0,0,0-1.33,1.25l-3,3.35Z"/><path class="cls-14" d="M71.92,58.41l11.86,3a13.35,13.35,0,0,0,1.33.24A60,60,0,0,1,88.64,76.6a58.35,58.35,0,0,1,.22,9.3,26.79,26.79,0,0,1,4.88,9.73.61.61,0,0,0,0,.13,16.44,16.44,0,0,1-5.72,16.86A31.52,31.52,0,0,1,67,120l-1.17-.06A26.66,26.66,0,0,1,43,102.83C42.59,99,41.6,95.46,41.4,91.5c-.8,1-2.83,3.6-5.63,4.8a13.91,13.91,0,0,1-6.2,1.1,10,10,0,0,1-8.18-10,14,14,0,0,1,1.55-5.52,13.43,13.43,0,0,1,4.38-4.79L27.6,77a.06.06,0,0,0,0,0c2.31,1.93,2.77,4.15,6.77,6.07a50.17,50.17,0,0,0,7.09,2.78.37.37,0,0,0,.41-.56,14.74,14.74,0,0,1-2.56-6c-.66-3.53,2.18-6.22,2.62-7.46l29.72-13.5Zm9.79,21.66c0-5.74-3.6-10.4-8-10.4-3.88,0-7.12,3.56-7.87,8.29-1.38-3.15-4-5.27-7-5.27-4.44,0-8,4.66-8,10.4s3.6,10.4,8,10.4c3.88,0,7.12-3.56,7.88-8.29,1.37,3.15,4,5.27,7,5.27C78.11,90.47,81.71,85.81,81.71,80.07Z"/><path class="cls-15" d="M84.88,61.12c.08.18.15.37.23.57a13.35,13.35,0,0,1-1.33-.24l-11.86-3,.87-.39Z"/><ellipse class="cls-13" cx="77.29" cy="80.53" rx="4.27" ry="5.75"/><path class="cls-2" d="M73.67,69.67c4.44,0,8,4.66,8,10.4s-3.6,10.4-8,10.4c-3,0-5.61-2.12-7-5.27a13.17,13.17,0,0,0,.16-2.11,12.7,12.7,0,0,0-1-5.13C66.55,73.23,69.79,69.67,73.67,69.67Zm7.89,10.86c0-3.18-1.91-5.75-4.27-5.75S73,77.35,73,80.53s1.91,5.76,4.28,5.76S81.56,83.71,81.56,80.53Z"/><path class="cls-12" d="M76.87,39.16l2,4-42.47,22,.18-5,1.17-32.08a47.88,47.88,0,0,1-7.15,8.52,48.75,48.75,0,0,1-9.54,7,1.2,1.2,0,0,1-1.75-1.35,45.8,45.8,0,0,1,15.5-23.72,43.49,43.49,0,0,1,7-4.46,19.6,19.6,0,0,1,19,.53c.27.16.54.33.8.51a23.56,23.56,0,0,1,8.08,9.18Q73.24,31.79,76.87,39.16Z"/><path class="cls-2" d="M66.85,83.09a13.17,13.17,0,0,1-.16,2.11l-.14-.3a6.61,6.61,0,0,0,.16-1.49,6.91,6.91,0,0,0-1.06-3.78A12.8,12.8,0,0,1,65.8,78,12.7,12.7,0,0,1,66.85,83.09Z"/><path class="cls-13" d="M66.71,83.41a6.61,6.61,0,0,1-.16,1.49,12.82,12.82,0,0,1-.92-4.83,3.17,3.17,0,0,1,0-.44A6.91,6.91,0,0,1,66.71,83.41Z"/><path class="cls-2" d="M66.55,84.9l.14.3c-.76,4.73-4,8.29-7.88,8.29-4.44,0-8-4.65-8-10.4s3.6-10.4,8-10.4c3,0,5.61,2.12,7,5.27a12.8,12.8,0,0,0-.15,1.67,3.9,3.9,0,0,0-3.23-2c-2.36,0-4.27,2.57-4.27,5.75s1.91,5.75,4.27,5.75C64.4,89.16,66.07,87.35,66.55,84.9Z"/><path class="cls-13" d="M66.55,84.9c-.48,2.45-2.15,4.26-4.13,4.26-2.36,0-4.27-2.58-4.27-5.75s1.91-5.75,4.27-5.75a3.9,3.9,0,0,1,3.23,2,3.17,3.17,0,0,0,0,.44A12.82,12.82,0,0,0,66.55,84.9Z"/><path class="cls-13" d="M43,102.83q.1.89.15,1.8c-1.25.86-4.27,3.23-6.27,4.06a26.37,26.37,0,0,1-6.63,1.77,12.38,12.38,0,0,0,1.55-6.86c-.22-3.11-2.29-5.17-2.22-6.2a13.91,13.91,0,0,0,6.2-1.1,14.1,14.1,0,0,0,5.31-4l.09,1.91A27.5,27.5,0,0,0,43,102.83Z"/><path class="cls-15" d="M41.4,91.5c.2,4,1.19,7.48,1.59,11.33a27.5,27.5,0,0,1-1.82-8.61l-.09-1.91a14.1,14.1,0,0,1-5.31,4C38.57,95.1,40.6,92.47,41.4,91.5Z"/><path class="cls-16" d="M29.57,97.4a10,10,0,0,1-8.18-10,14,14,0,0,1,1.55-5.52,13.43,13.43,0,0,1,4.38-4.79"/><path class="cls-16" d="M43.07,71.52,71.92,58.41l.87-.39,12.09,3.1c.08.18.15.37.23.57A60,60,0,0,1,88.64,76.6a58.35,58.35,0,0,1,.22,9.3,26.79,26.79,0,0,1,4.88,9.73.61.61,0,0,0,0,.13,16.44,16.44,0,0,1-5.72,16.86A31.52,31.52,0,0,1,67,120l-1.17-.06A26.66,26.66,0,0,1,43,102.83a27.5,27.5,0,0,1-1.82-8.61l-.09-1.91a14.1,14.1,0,0,1-5.31,4"/><path class="cls-16" d="M78.83,43.16l26.41-13.68a6.48,6.48,0,0,1,6,10.62,37.72,37.72,0,0,1-23.9,13"/><path class="cls-16" d="M21.39,87.44l-2.66.23a6.36,6.36,0,0,1-6-2.88c-1.55-2.65-.67-6.53,2.43-8.63l21.17-11"/><path class="cls-17" d="M35.77,96.3c2.8-1.2,4.83-3.83,5.63-4.8.2,4,1.19,7.48,1.59,11.33q.1.89.15,1.8c-1.25.86-4.27,3.23-6.27,4.06a26.37,26.37,0,0,1-6.63,1.77,12.38,12.38,0,0,0,1.55-6.86c-.22-3.11-2.29-5.17-2.22-6.2"/><path class="cls-16" d="M29.57,97.4a13.91,13.91,0,0,0,6.2-1.1"/><path class="cls-16" d="M87.3,53.52l11.74.4a12.91,12.91,0,0,1-13.93,7.77,13.35,13.35,0,0,1-1.33-.24l-11.86-3-.24-.06L42,71.85c-.44,1.24-3.28,3.93-2.62,7.46a14.74,14.74,0,0,0,2.56,6,.37.37,0,0,1-.41.56,50.17,50.17,0,0,1-7.09-2.78c-4-1.92-4.46-4.14-6.77-6.07a.06.06,0,0,1,0,0,.12.12,0,0,1,0-.16c10.12-5.51,19.43-10.88,29.56-16.4s20.36-11.1,30.55-16.64a3,3,0,0,1,2.78,5.13,14.34,14.34,0,0,0-1.33,1.25l-3,3.35Z"/><path class="cls-17" d="M27.24,90.1a6.69,6.69,0,0,1,1-2.94A5,5,0,0,1,31.12,85"/><line class="cls-17" x1="32.22" y1="89.99" x2="28.26" y2="87.16"/><path class="cls-18" d="M65.8,78a12.7,12.7,0,0,1,1,5.13,13.17,13.17,0,0,1-.16,2.11c-.76,4.73-4,8.29-7.88,8.29-4.44,0-8-4.65-8-10.4s3.6-10.4,8-10.4C61.81,72.69,64.42,74.81,65.8,78Z"/><path class="cls-18" d="M65.8,78c.75-4.73,4-8.29,7.87-8.29,4.44,0,8,4.66,8,10.4s-3.6,10.4-8,10.4c-3,0-5.61-2.12-7-5.27"/><line class="cls-19" x1="68.82" y1="92.85" x2="71.99" y2="92.92"/><path class="cls-18" d="M65.65,79.63a6.91,6.91,0,0,1,1.06,3.78,6.61,6.61,0,0,1-.16,1.49c-.48,2.45-2.15,4.26-4.13,4.26-2.36,0-4.27-2.58-4.27-5.75s1.91-5.75,4.27-5.75A3.9,3.9,0,0,1,65.65,79.63Z"/><ellipse class="cls-18" cx="77.29" cy="80.53" rx="4.27" ry="5.75"/><path class="cls-19" d="M47.82,77a9.91,9.91,0,0,1,5.73-8.65,9.73,9.73,0,0,1,7.25,0"/><path class="cls-19" d="M64.48,69.44a9,9,0,0,1,7.23-6.35,9.44,9.44,0,0,1,8.06,3.13"/><path class="cls-20" d="M37.71,28.15a47.88,47.88,0,0,1-7.15,8.52,48.75,48.75,0,0,1-9.54,7,1.2,1.2,0,0,1-1.75-1.35,45.8,45.8,0,0,1,15.5-23.72,43.49,43.49,0,0,1,7-4.46,19.6,19.6,0,0,1,19,.53c.27.16.54.33.8.51a23.56,23.56,0,0,1,8.08,9.18q3.61,7.4,7.25,14.77l2,4-42.47,22,.18-5,1.17-32.08"/><path class="cls-21" d="M37.37,37.3l1.84.08a1.39,1.39,0,0,0,1.16-.54l2.82-3.74a.25.25,0,0,1,.45.09l1.25,4.51a1.37,1.37,0,0,0,.87.94l4.43,1.53a.25.25,0,0,1,.05.45L46.33,43.2a1.39,1.39,0,0,0-.61,1.12L45.62,49a.25.25,0,0,1-.41.2l-3.66-2.92A1.32,1.32,0,0,0,40.3,46L37,47l.18-4.36Z"/><path class="cls-22" d="M68.23,22.17l-1,.77a1,1,0,0,0-.38.8L66.93,27a.17.17,0,0,1-.28.15L64,25.27a1,1,0,0,0-.88-.12L60,26.28a.18.18,0,0,1-.23-.22l1-3.12a1,1,0,0,0-.16-.88l-2-2.57a.18.18,0,0,1,.13-.29l3.28,0a.94.94,0,0,0,.78-.42l1.35-2L66,19.16Z"/><polygon class="cls-23" points="76.87 39.16 36.54 60.23 36.36 65.18 78.84 43.16 76.87 39.16"/><path class="cls-2" d="M159.36,100.66a7.36,7.36,0,0,1-2.43,5.31,10.33,10.33,0,0,0-3.72-3.17,2.1,2.1,0,0,0-.3-.15,6.66,6.66,0,0,0-1.26-.48L151,102a1.63,1.63,0,0,0-.37-.08l-.37-.08a3.31,3.31,0,0,0-1.5-.14h-.16a2.7,2.7,0,0,0-.65,0c-.32,0-.6.06-.83.09h0l-.13-.07a.69.69,0,0,1-.17-.17c0-.33-.08-.78-.17-1.33,0-.29-.06-.62-.13-1a10.41,10.41,0,0,0-1.45-3.37,7.53,7.53,0,0,1,6.39-2.14c.24,0,.56,0,.93,0a8.5,8.5,0,0,1,3.34,1A8.24,8.24,0,0,1,158,96.57,6.92,6.92,0,0,1,159.36,100.66Z"/><path class="cls-2" d="M153.78,111.84c-.1-.23-.2-.43-.28-.59s-.39-.33-.65-.51l0,0h0a0,0,0,0,0,0,0l0,0a5.94,5.94,0,0,0-1.3-.79,8.24,8.24,0,0,0-3.06-.8h-1.22l-.28,0-.27,0-.25,0-.21,0-.19,0a3.76,3.76,0,0,1-.82-1.81,3.46,3.46,0,0,1,.09-1.48,4.94,4.94,0,0,0,1.23-2.05s0,0,0,0a5.71,5.71,0,0,0,.36-2l.29,0h0a1.37,1.37,0,0,0,.83-.08c.2,0,.42,0,.65,0h.06a10.51,10.51,0,0,1,1.6.13l.37.08.37.08.63.16a8.54,8.54,0,0,1,.95.35l.31.13a2.1,2.1,0,0,1,.3.15l.33.19a11.68,11.68,0,0,1,3.39,3,7.48,7.48,0,0,1,0,5.06,7.3,7.3,0,0,1-2.43,3.22,4.94,4.94,0,0,0-.67-2.35h0Z"/><polygon class="cls-12" points="155.41 74.22 154.72 81.72 154.62 82.24 154.9 79.45 149.15 77.63 148.98 77.56 150.8 73.04 155.41 74.22"/><polygon class="cls-13" points="154.9 79.45 154.62 82.24 154.3 83.9 147.77 82.12 149.15 77.63 154.9 79.45"/><path class="cls-2" d="M146.42,116.6a4.42,4.42,0,0,1-3-2.85,1.8,1.8,0,0,1-.06-.32,2.67,2.67,0,0,1,0-.63,4.87,4.87,0,0,1,.73-2.25,2.78,2.78,0,0,1,1.89-1.32s0,0,0,0l.19,0,.21,0,.25,0,.27,0,.28,0h.89l.32,0a8.46,8.46,0,0,1,1.64.29,9,9,0,0,1,2.73,1.28l0,0a0,0,0,0,1,0,0h0l0,0a4,4,0,0,1,.69.76,2.62,2.62,0,0,1,.24.34l0,0h0a9,9,0,0,1,.67,2.35,9.52,9.52,0,0,1,.11,1.46,9.28,9.28,0,0,1-1.17,4.47,9.07,9.07,0,0,1-3.07,2.34,9.36,9.36,0,0,1-5.59.69Z"/><path class="cls-12" d="M154.3,83.9l-1.9,9.88c-.37,0-.69,0-.93,0a7.48,7.48,0,0,0-6.39,2.14,10.41,10.41,0,0,1,1.45,3.37c.07.38.1.71.13,1a12.4,12.4,0,0,0-.29-1.22c0-.05,0-.09,0-.14s-.11-.36-.18-.55l0-.11c0-.06-.05-.12-.07-.17-.1-.26-.2-.53-.33-.8a4,4,0,0,0-.17-.37c-.06-.13-.12-.25-.19-.38a11,11,0,0,0-.61-1c-.08-.12-.16-.25-.25-.37s-.25-.33-.38-.5l.14-.62c3.65-13.73.13-.37,3.78-14.11l.94-2.34.17.07-1.38,4.49Z"/><path class="cls-2" d="M141.24,106.88,137.67,122l-1.32,0c-.43-.63-.9-1.39-1.37-2.25-.31-.58-.62-1.2-.93-1.88h0a28.77,28.77,0,0,1-1.25-3.39,27,27,0,0,1-1-9.51,14.52,14.52,0,0,1,1.94-10.22l0-.07a6.21,6.21,0,0,1,9.58-.92.46.46,0,0,1,.07.07c.26.27.5.55.73.84s.26.33.38.5.17.25.25.37a11,11,0,0,1,.61,1c.06.13.13.25.19.38s.12.25.17.37c.13.27.23.54.33.8,0,.1.07.19.1.28s.13.37.18.55,0,.09,0,.14a9.71,9.71,0,0,1,.31,1.93,1.09,1.09,0,0,0,.15.62c0,.11,0,.21,0,.28a6.65,6.65,0,0,1-.21,1.47,4.91,4.91,0,0,1-.15.51s0,0,0,0a5.55,5.55,0,0,1-2.89,3.09,2.67,2.67,0,0,1-1.39.22l-.28,0-.21-.06-.09,0a1.89,1.89,0,0,1-.36-.16Z"/><path class="cls-12" d="M146.42,116.6l-1.66,6.61h0l-7.05-1.2,3.57-15.13h0a1.89,1.89,0,0,0,.36.16l.09,0,.21.06.28,0a2.67,2.67,0,0,0,1.39-.22,5.55,5.55,0,0,0,2.89-3.09,4.94,4.94,0,0,1-1.23,2.05,3.46,3.46,0,0,0-.09,1.48,3.76,3.76,0,0,0,.82,1.81s0,0,0,0a8.66,8.66,0,0,0-1.1.26,6.14,6.14,0,0,0-.79,1.06,4.87,4.87,0,0,0-.73,2.25,2.67,2.67,0,0,0,0,.63,1.8,1.8,0,0,0,.06.32A4.42,4.42,0,0,0,146.42,116.6Z"/><path class="cls-2" d="M135,119.72c.47.86.94,1.62,1.37,2.25a6,6,0,0,1-6.51,2.11c-5.6-4.52-5.26-12.42-5.26-12.42.2-1,.4-2,.59-2.94a4.68,4.68,0,0,1,2.28-3.2l0,0a6.23,6.23,0,0,1,4.28-.57,27,27,0,0,0,1,9.51,25.61,25.61,0,0,0,1.25,3.39h0C134.35,118.51,134.66,119.14,135,119.72Z"/><path class="cls-24" d="M134.05,117.83a28.77,28.77,0,0,1-1.25-3.39"/><path class="cls-24" d="M135,119.72c-.31-.58-.62-1.2-.93-1.88"/><path class="cls-24" d="M131.76,104.93a6.23,6.23,0,0,0-4.28.57l0,0a4.68,4.68,0,0,0-2.28,3.2c-.19,1-.39,2-.59,2.94,0,0-.34,7.9,5.26,12.42a6,6,0,0,0,6.51-2.11"/><path class="cls-24" d="M147.83,109.07h.23l.32,0v0"/><path class="cls-24" d="M148.38,109.08h-.45"/><path class="cls-24" d="M152.4,93.78l1.9-9.88.32-1.66.1-.52.69-7.5L150.8,73,149,77.56,148,79.9c-3.65,13.74-.13.38-3.78,14.11l-.14.62"/><path class="cls-24" d="M146.37,99a12.4,12.4,0,0,1,.29,1.22"/><path class="cls-24" d="M146.05,98.07c0,.1.07.19.1.28"/><path class="cls-24" d="M145.36,96.52c.06.13.13.25.19.38s.12.25.17.37"/><path class="cls-24" d="M144.5,95.13c.09.12.17.25.25.37"/><path class="cls-24" d="M144.07,110.55a2.78,2.78,0,0,1,1.89-1.32"/><path class="cls-24" d="M146.48,103.85a4.91,4.91,0,0,0,.15-.51,6.65,6.65,0,0,0,.21-1.47c0-.07,0-.17,0-.28a1.09,1.09,0,0,1-.15-.62,9.71,9.71,0,0,0-.31-1.93c0-.05,0-.09,0-.14s-.11-.36-.18-.55l0-.11c0-.06-.05-.12-.07-.17-.1-.26-.2-.53-.33-.8a4,4,0,0,0-.17-.37c-.06-.13-.12-.25-.19-.38a11,11,0,0,0-.61-1c-.08-.12-.16-.25-.25-.37s-.25-.33-.38-.5-.47-.57-.73-.84a.46.46,0,0,0-.07-.07,6.21,6.21,0,0,0-9.58.92l0,.07a14.52,14.52,0,0,0-1.94,10.22,27,27,0,0,0,1,9.51,25.61,25.61,0,0,0,1.25,3.39h0c.3.67.61,1.3.93,1.88.47.86.94,1.62,1.37,2.25l1.32,0,3.57-15.13h0a1.89,1.89,0,0,0,.36.16l.09,0,.21.06.28,0a2.67,2.67,0,0,0,1.39-.22,5.55,5.55,0,0,0,2.89-3.09"/><path class="cls-24" d="M141.24,106.88a8.5,8.5,0,0,1-4.14-5.8"/><path class="cls-24" d="M146,109.22s0,0,0,0a8.66,8.66,0,0,0-1.1.26,6.14,6.14,0,0,0-.79,1.06,4.87,4.87,0,0,0-.73,2.25,2.67,2.67,0,0,0,0,.63,1.8,1.8,0,0,0,.06.32,4.42,4.42,0,0,0,3,2.85l-1.66,6.61a9.36,9.36,0,0,0,5.59-.69,9.07,9.07,0,0,0,3.07-2.34,9.28,9.28,0,0,0,1.17-4.47,9.52,9.52,0,0,0-.11-1.46,9,9,0,0,0-.67-2.35"/><path class="cls-24" d="M150.33,116.65a6.4,6.4,0,0,1-3.91-.05"/><path class="cls-24" d="M152.75,110.67a9,9,0,0,0-2.73-1.28,8.46,8.46,0,0,0-1.64-.29"/><path class="cls-24" d="M147.13,101.83l-.29,0a5.71,5.71,0,0,1-.36,2s0,0,0,0a4.94,4.94,0,0,1-1.23,2.05,3.46,3.46,0,0,0-.09,1.48,3.76,3.76,0,0,0,.82,1.81l.19,0,.21,0,.25,0,.27,0,.28,0h.89a1.71,1.71,0,0,1,.32,0h0a8.24,8.24,0,0,1,3.06.8,5.94,5.94,0,0,1,1.3.79"/><path class="cls-24" d="M148.62,101.72c-.23,0-.45,0-.65,0a1.37,1.37,0,0,1-.83.08"/><path class="cls-24" d="M150.28,101.85a10.51,10.51,0,0,0-1.6-.13"/><path class="cls-24" d="M151,102a1.63,1.63,0,0,0-.37-.08"/><path class="cls-24" d="M152.91,102.65l-.31-.13a8.54,8.54,0,0,0-.95-.35"/><path class="cls-24" d="M153.5,111.25c.08.16.18.36.28.59l0,0h0a4.94,4.94,0,0,1,.67,2.35,7.3,7.3,0,0,0,2.43-3.22,7.48,7.48,0,0,0,0-5.06"/><path class="cls-24" d="M153.81,111.89l0,0c-.1-.23-.2-.43-.28-.59s-.39-.33-.65-.51"/><path class="cls-24" d="M152.75,110.67l0,0a0,0,0,0,1,0,0h0l0,0a4,4,0,0,1,.69.76,2.62,2.62,0,0,1,.24.34"/><path class="cls-24" d="M153.21,102.8l.33.19a11.68,11.68,0,0,1,3.39,3"/><path class="cls-24" d="M152.4,93.78c-.37,0-.69,0-.93,0a7.48,7.48,0,0,0-6.39,2.14,10.41,10.41,0,0,1,1.45,3.37c.07.38.1.71.13,1,.09.55.15,1,.17,1.33a.69.69,0,0,0,.17.17l.13.07h0c.23,0,.51-.07.83-.09a2.7,2.7,0,0,1,.65,0h.16a3.31,3.31,0,0,1,1.5.14l.37.08.37.08.63.16a6.66,6.66,0,0,1,1.26.48,2.1,2.1,0,0,1,.3.15,10.33,10.33,0,0,1,3.72,3.17,7.36,7.36,0,0,0,2.43-5.31A6.92,6.92,0,0,0,158,96.57a8.24,8.24,0,0,0-2.26-1.81A8.5,8.5,0,0,0,152.4,93.78Z"/><polyline class="cls-24" points="137.67 122.01 144.72 123.21 144.76 123.21"/><polygon class="cls-24" points="149.15 77.63 147.77 82.12 154.3 83.9 154.45 83.94 154.62 82.24 154.9 79.45 149.15 77.63"/><image width="1024" height="1024" transform="matrix(0.07, 0, 0, 0.07, 166.11, 65.97)" xlink:href="../../../Downloads/ChatGPT%20Image%2023%20sept%202025,%2011_11_43.png"/><rect class="cls-25" x="202.27" y="114.96" width="3.7" height="2.3"/><path class="cls-26" d="M74.59,105.6a16.71,16.71,0,0,1-12.86-.8,11.55,11.55,0,0,1-1.09-.64,15.39,15.39,0,0,1-3.85-3.55l-.27-.36"/><path class="cls-27" d="M60.64,104.16a5.07,5.07,0,0,1-2.3,3c-2.11,1.31-4.62,1.08-5.61-.52s-.1-4,2-5.26a5.5,5.5,0,0,1,2.06-.78A15.39,15.39,0,0,0,60.64,104.16Z"/><line class="cls-26" x1="58.37" y1="102.55" x2="55.78" y2="104.63"/><path class="cls-28" d="M155.29,75c.51.55,5.39-3.14,7.36-8.18l0-.08a12.59,12.59,0,0,0-.25-9.57c-.36-.84-.76-1.69-1.19-2.56q-1.19-2.37-2.45-4.42a58.71,58.71,0,0,0-4.34-6.12.14.14,0,0,0-.24.11,15.75,15.75,0,0,1,0,4.92,14.37,14.37,0,0,1-3.76,7.74A12.05,12.05,0,0,0,147,62a11.84,11.84,0,0,0-.58,4.88,20.8,20.8,0,0,0,1.38,3.9,21.16,21.16,0,0,0,2,3.45A4.54,4.54,0,0,1,155.29,75Z"/><g class="cls-29"><path class="cls-30" d="M152.92,59.44c-.09,1-.92,2-1.88,1.54-.17-.07-.41-.38-.13,0,.08.11.19.22.28.32-.31-.35-.07-.08,0,0l.59.76a5.21,5.21,0,0,0,1.12,1c1.64,1,3.43.62,5-.21l.68-.35c.51-.29-.33,0,0,0a1.69,1.69,0,0,0,.34-.1l.09,0a.94.94,0,0,1-.64,0c.24.06.14.15-.05,0a6.63,6.63,0,0,0,.87.63,3.53,3.53,0,0,0,5.45-2c.46-1.91-.74-3.78-1.49-5.46l-2.13-4.75c-.71-1.59-1.41-3.18-2.13-4.76a3.52,3.52,0,0,0-2.2-2,3.07,3.07,0,0,0-3.42,1.54,36.69,36.69,0,0,0-2.06,5.44,20.41,20.41,0,0,1-.92,2.15c-.43.9-.9,1.77-1.41,2.63a2.54,2.54,0,0,0,.9,3.42c2.31,1.33,5.68,1.69,7.95.06a4.2,4.2,0,0,0,1.61-4.57,7,7,0,0,0-.85-1.84c-.17-.29-.35-.57-.52-.85s-.15-.29,0-.07c-.11-.46-.12-.3,0,.47l-.64,1.1.12-.09-1.1.64.15,0h-1.33a1.32,1.32,0,0,1-.77-.59,3.17,3.17,0,0,1,.23.36c.07.12.13.24.19.37-.11-.28-.11-.28,0,0s.15.54.21.82c-.13-.59,0,.13,0,.28s0,.49,0,.74c.06-.63-.08.24-.12.37s-.08.27-.13.4c.12-.27.12-.28,0,0-.06.09-.54.83-.19.38a2.57,2.57,0,0,0,0,3.54c.9.82,2.68,1.1,3.54,0a8.32,8.32,0,0,0,1.87-6.15c-.29-2.36-1.8-6.1-4.87-5.3a3.1,3.1,0,0,0-1.83,4.27,8.75,8.75,0,0,0,.85,1.67l.38.61c.12.24.14.28.07.12s-.06-.11,0,.13c0-.26,0-.3,0-.12,0,.33.05.15.18-.53.06-.08.6-.48.19-.2s.29,0-.16,0c-.12,0-.71.13-.26.09-.24,0-.47,0-.71,0-.55,0,.21.1-.28,0a7.1,7.1,0,0,1-.79-.22l.05,0a3.42,3.42,0,0,1-.42-.23l.9,3.43a40,40,0,0,0,2.69-5.6c.34-.88.63-1.78.93-2.67.14-.42.28-.84.44-1.26.29-.75-.19.33.17-.38l.12-.24c.13-.24.11-.21-.08.1l-1.1.64h-.86l-1.1-.64c.19.17.18.14,0-.09.07.14.14.28.2.43.16.35.32.7.47,1l1,2.12,1.9,4.22c.62,1.4,1.37,2.79,1.89,4.23-.13-.3-.14-.31-.05,0s.07.26,0-.08a1.52,1.52,0,0,1,.47-1,1.38,1.38,0,0,1,1.68-.36,5.13,5.13,0,0,0-.7-.49,4.19,4.19,0,0,0-1.13-.59,5.14,5.14,0,0,0-4.18.59c-.23.12-.46.23-.68.36s-.23.11.08,0l-.34.11c-.28.06-.23.06.15,0s.42.08.15,0a.67.67,0,0,1,.39.22c-.1-.1-.2-.2-.29-.31s-.18-.22,0,0l-.51-.68a5.69,5.69,0,0,0-.57-.63,4.13,4.13,0,0,0-2.64-1.19,3.55,3.55,0,0,0-3.73,3.36,2.51,2.51,0,0,0,2.5,2.5,2.56,2.56,0,0,0,2.5-2.5Z"/></g><path class="cls-31" d="M155.29,75c.51.55,5.39-3.14,7.36-8.18l0-.08a12.59,12.59,0,0,0-.25-9.57c-.36-.84-.76-1.69-1.19-2.56q-1.19-2.37-2.45-4.42a58.71,58.71,0,0,0-4.34-6.12.14.14,0,0,0-.24.11,15.75,15.75,0,0,1,0,4.92,14.37,14.37,0,0,1-3.76,7.74A12.05,12.05,0,0,0,147,62a11.84,11.84,0,0,0-.58,4.88,20.8,20.8,0,0,0,1.38,3.9,21.16,21.16,0,0,0,2,3.45A4.54,4.54,0,0,1,155.29,75Z"/><path class="cls-1" d="M149.81,74.27s.26-6.68,1.73-8"/><path class="cls-1" d="M155.29,75s1.33-4.92.46-7.05"/><path class="cls-1" d="M154.24,49.11s.51,5.47-.33,8.75"/><path class="cls-1" d="M158.79,50.2s0,5.79-.7,8.07"/></g></g></svg>