<svg width="564" height="351" viewBox="0 0 564 351" fill="none" xmlns="http://www.w3.org/2000/svg">
<path d="M358 193C287.5 152.5 161.8 27 25 25" stroke="#79BCE8" stroke-width="50" stroke-linecap="round"/>
<g clip-path="url(#clip0_560_52)">
<path d="M441.1 238.679C441.179 238.701 441.249 238.747 441.302 238.809C443.2 239.5 445.169 239.977 447.172 240.232C448.524 240.334 449.898 240.367 451.122 240.409C465.759 239.543 472.76 222.845 476.414 214.583C480.806 204.666 470.335 175.911 437.394 184.181C406.917 191.83 396.673 181.767 395.302 180.223L394.922 180.167C394.87 180.364 394.788 180.552 394.679 180.725L362.035 231.067C361.883 231.3 361.68 231.494 361.441 231.635L361.551 231.814C361.551 231.814 394.838 275.34 414.288 293.851C415.211 294.724 416.134 295.525 417.05 296.262L417.099 296.187C408.119 287.98 404.463 277.076 409.626 269.113C414.523 261.562 424.009 266.783 426.936 267.323C431.09 268.086 437.135 273.65 445.058 278.728C433.218 269.859 422.265 263.627 422.58 251.984C422.711 247.242 425.663 242.065 429.926 239.883C433.389 238.276 437.289 237.869 441.009 238.727C441.009 238.727 441.075 238.662 441.1 238.679Z" fill="#FEFEFC"/>
<path d="M537.696 258.074L476.441 214.541C472.754 222.781 465.786 239.501 451.149 240.367C453.72 240.354 455.723 240.187 455.723 240.187C459.751 242.799 463.188 245.218 466.129 247.519L518.818 284.651C522.151 287.054 526.264 288.119 530.344 287.635C534.425 287.152 538.175 285.155 540.855 282.04C541.073 281.777 541.28 281.513 541.475 281.25C542.531 279.811 543.359 278.217 543.93 276.526C545.009 273.188 544.985 269.592 543.862 266.269C542.74 262.947 540.578 260.073 537.696 258.074Z" fill="#FEFEFC"/>
<path d="M385.367 166.725C384.208 165.952 382.983 165.282 381.708 164.722C378.574 163.391 375.071 163.214 371.82 164.221C368.568 165.229 365.778 167.355 363.946 170.224L340.366 206.588C338.604 209.285 337.794 212.494 338.063 215.704C338.333 218.915 339.667 221.944 341.854 224.31C343.491 226.056 345.383 227.544 347.466 228.723C351.492 230.982 356.075 232.057 360.686 231.825C360.964 231.811 361.235 231.729 361.473 231.585C361.713 231.444 361.916 231.249 362.068 231.017L394.712 180.674C394.82 180.502 394.902 180.314 394.954 180.116C395.032 179.789 395.014 179.447 394.903 179.13C393.154 174.07 389.807 169.716 385.367 166.725Z" fill="#FEFEFC"/>
<path d="M466.129 247.519C462.659 245.078 459.19 242.634 455.723 240.187C455.723 240.187 453.72 240.354 451.149 240.367C449.813 240.445 448.473 240.394 447.147 240.216C445.11 240.177 443.106 239.692 441.277 238.793C441.207 238.753 441.14 238.71 441.075 238.662C441.075 238.662 441.075 238.662 440.967 238.664C437.247 237.806 433.347 238.212 429.884 239.82C425.632 241.985 422.711 247.206 422.538 251.921C422.223 263.564 433.175 269.795 445.016 278.665L445.074 278.703C446.316 279.508 467.241 292.087 475.38 279.535C482.532 268.559 482.298 260.172 466.129 247.519Z" fill="#FEFEFC"/>
<path d="M445.063 278.647C437.132 273.564 431.095 268.005 426.941 267.242C424.013 266.703 414.527 261.481 409.631 269.033C404.468 276.995 408.124 287.899 417.104 296.106L417.055 296.182C423.452 301.259 429.622 302.864 435.026 302.746C447.355 302.48 455.442 285.377 445.121 278.685L445.063 278.647Z" fill="#FEFEFC"/>
<path d="M361.479 231.577C361.24 231.72 360.97 231.803 360.692 231.817C356.08 232.052 351.495 230.98 347.466 228.723C345.383 227.544 343.491 226.056 341.854 224.31C339.667 221.944 338.333 218.915 338.063 215.705C337.794 212.494 338.604 209.285 340.366 206.588L363.946 170.224C365.776 167.357 368.562 165.231 371.81 164.222C375.058 163.213 378.559 163.386 381.691 164.711C382.967 165.271 384.191 165.942 385.35 166.714C389.79 169.708 393.135 174.065 394.881 179.127C394.992 179.445 395.01 179.787 394.932 180.114C394.88 180.311 394.798 180.499 394.69 180.672L362.046 231.015C361.901 231.242 361.707 231.434 361.479 231.577Z" stroke="#2C2C2C" stroke-width="3" stroke-miterlimit="10"/>
<path d="M395.163 179.978C395.163 179.978 395.231 180.021 395.33 180.181C396.709 181.731 406.955 191.771 437.421 184.138C470.362 175.869 480.833 204.624 476.441 214.541C472.754 222.781 465.786 239.501 451.149 240.367C449.813 240.445 448.473 240.394 447.147 240.216C445.144 239.961 443.175 239.484 441.277 238.793C441.207 238.753 441.14 238.71 441.075 238.662C420.01 230.712 447.349 200.277 447.349 200.277C447.349 200.277 432.511 213.658 411.831 219.413C406.339 220.969 400.675 221.833 394.969 221.983" stroke="#2C2C2C" stroke-width="3" stroke-miterlimit="10"/>
<path d="M412.808 240.201C415.021 233.391 414.682 226.009 411.856 219.43" stroke="#2C2C2C" stroke-width="3" stroke-miterlimit="10"/>
<path d="M445.063 278.648C437.132 273.565 431.094 268.005 426.941 267.243C424.013 266.703 414.527 261.482 409.631 269.033C404.467 276.996 408.123 287.9 417.104 296.107" stroke="#2C2C2C" stroke-width="3" stroke-miterlimit="10"/>
<path d="M361.589 231.755C361.589 231.755 394.876 275.281 414.326 293.792C415.249 294.665 416.172 295.466 417.089 296.203C423.452 301.259 429.622 302.864 435.026 302.746C447.355 302.48 455.442 285.377 445.121 278.685" stroke="#2C2C2C" stroke-width="3" stroke-miterlimit="10"/>
<path d="M445.063 278.648L445.121 278.686C446.363 279.491 467.288 292.07 475.427 279.518C482.532 268.56 482.314 260.147 466.129 247.519C463.204 245.229 459.751 242.799 455.723 240.187C455.723 240.187 453.72 240.354 451.149 240.368C449.945 240.386 448.53 240.326 447.2 240.191C445.162 240.152 443.158 239.666 441.329 238.768C441.276 238.705 441.206 238.659 441.128 238.637C441.128 238.637 441.128 238.637 441.019 238.638C437.299 237.78 433.399 238.187 429.937 239.795C425.684 241.96 422.763 247.181 422.59 251.896C422.27 263.547 433.222 269.778 445.063 278.648Z" stroke="#2C2C2C" stroke-width="3" stroke-miterlimit="10"/>
<path d="M476.441 214.541L537.696 258.074C540.586 260.067 542.758 262.939 543.889 266.263C545.02 269.588 545.05 273.188 543.974 276.531C543.404 278.222 542.575 279.816 541.519 281.255C541.334 281.541 541.127 281.804 540.899 282.045C538.217 285.172 534.458 287.175 530.367 287.658C526.276 288.141 522.154 287.067 518.818 284.651L466.129 247.519C462.659 245.078 459.19 242.634 455.723 240.187" stroke="#2C2C2C" stroke-width="3" stroke-miterlimit="10"/>
</g>
<defs>
<clipPath id="clip0_560_52">
<rect width="120.66" height="212.39" fill="white" transform="matrix(0.544061 -0.839046 -0.839046 -0.544061 498.205 350.792)"/>
</clipPath>
</defs>
</svg>
