<svg width="521" height="356" viewBox="0 0 521 356" fill="none" xmlns="http://www.w3.org/2000/svg">
<path d="M486.672 354.389C499.589 359.265 514.014 352.745 518.89 339.828C523.765 326.91 517.246 312.486 504.329 307.61L495.5 331L486.672 354.389ZM131 168L118.866 189.857C165.59 215.796 404.349 323.316 486.672 354.389L495.5 331L504.329 307.61C423.452 277.083 187.077 170.536 143.134 146.142L131 168Z" fill="#79BCE8"/>
<g clip-path="url(#clip0_560_69)">
<path d="M28.214 112.318C22.4101 112.205 17.3303 114.998 14.9377 119.616C13.7301 121.992 13.3026 124.688 13.716 127.321C14.3329 130.896 16.0153 134.2 18.5427 136.802C22.5884 141.137 27.2459 144.857 32.3675 147.845L32.7466 148.048C34.6049 149.111 36.4229 150.016 38.1634 150.812C47.84 155.153 58.5178 149.912 58.8046 140.436C58.8228 140.105 58.8233 139.765 58.8103 139.429C58.5159 135.038 56.8827 130.842 54.1306 127.407C49.2351 120.873 40.8064 115.26 30.3045 112.757C29.9982 112.672 29.6736 112.6 29.3578 112.533L28.214 112.318Z" fill="#FEFEFC"/>
<path d="M32.2833 147.981C36.5896 151.421 56.1627 169.057 61.6603 172.454C69.9383 177.573 78.677 181.906 87.7621 185.396C89.5413 186.086 91.5112 186.103 93.3017 185.443C95.0922 184.782 96.58 183.491 97.4854 181.811L126.485 127.645C127.446 125.85 127.961 123.85 127.985 121.813C128.148 109.805 130.525 97.9308 134.998 86.786C140.029 74.2687 147.589 62.9243 157.206 53.4625C157.806 51.3 157.652 48.9976 156.769 46.9343C155.886 44.871 154.327 43.1697 152.349 42.1104C150.37 41.0512 148.09 40.6971 145.883 41.1064C143.677 41.5157 141.675 42.6641 140.208 44.3625C131.295 50.669 123.709 58.6677 117.884 67.9029C112.717 76.1072 109.026 85.1526 106.978 94.6297C103.513 89.9819 99.656 85.6399 95.4489 81.6513C92.4774 78.7762 89.3377 76.0802 86.0464 73.5775L85.5347 73.1561C81.2434 69.4231 76.1196 66.7733 70.5929 65.4288C66.9117 64.5237 63.1079 64.2226 59.3302 64.5374C53.6841 65.0196 48.9782 67.2415 46.064 72.1128C45.9696 72.2891 45.8752 72.4654 45.7808 72.6417C45.5269 73.1086 45.327 73.6028 45.1849 74.1149C44.9283 74.8043 44.8581 75.5493 44.9815 76.2746C45.7879 80.4041 46.8044 84.0563 48.5269 86.9408C49.3409 88.2803 50.2534 89.5574 51.2567 90.7616C55.1878 95.5829 60.5312 99.0507 66.5356 100.677C66.8813 100.717 67.2223 100.789 67.5541 100.893C70.493 101.531 73.525 101.616 76.4949 101.143L76.5841 101.633C75.7687 105.508 75.332 109.453 75.2801 113.412C75.2469 113.962 74.8792 118.801 70.4331 124.86C70.4 124.922 70.367 124.983 70.3339 125.045C65.8647 130.49 61.0657 128.352 54.2406 127.159L54.0533 127.297C56.8054 130.732 58.4386 134.928 58.733 139.319C58.746 139.655 58.7454 139.995 58.7273 140.326C58.4404 149.803 47.7627 155.043 38.086 150.702C36.3408 149.915 34.5275 149.001 32.6692 147.938L32.2901 147.735L32.2833 147.981Z" fill="#FEFEFC"/>
<path d="M54.3321 127.242C61.1573 128.435 65.9563 130.573 70.4255 125.128C70.4586 125.066 70.4916 125.004 70.5246 124.943C74.9708 118.884 75.3385 114.044 75.3717 113.495C75.2804 109.873 72.482 102.579 67.5969 100.962C67.2364 100.893 66.8854 100.807 66.5784 100.745C60.5735 99.122 55.2283 95.6574 51.2948 90.8385C46.9029 87.5798 42.8402 86.3121 39.6917 87.2354C35.7593 88.3514 30.5749 90.7256 27.4303 95.8364C27.2541 96.1656 27.0842 96.483 26.9206 96.7886C23.3796 103.275 26.58 106.747 30.4122 112.746L30.3792 112.808C40.8811 115.311 49.3098 120.924 54.2053 127.458L54.3321 127.242Z" fill="#FEFEFC"/>
<path d="M124.073 132.15L99.0949 178.805C97.3871 181.957 96.9376 185.639 97.837 189.11C98.7364 192.58 100.918 195.581 103.942 197.507L104.109 197.596C105.199 198.271 106.329 198.876 107.494 199.409C110.776 200.85 114.481 200.997 117.866 199.819C121.25 198.641 124.064 196.227 125.742 193.06L150.715 146.414C152.331 143.43 152.822 139.965 152.099 136.649C151.376 133.333 149.488 130.387 146.776 128.346C145.901 127.719 144.979 127.161 144.018 126.676C143.099 126.186 142.145 125.766 141.163 125.42C137.979 124.323 134.509 124.399 131.376 125.632C128.243 126.866 125.653 129.177 124.073 132.15Z" fill="#FEFEFC"/>
<path d="M99.0949 178.805C97.3871 181.957 96.9376 185.639 97.837 189.11C98.7364 192.58 100.918 195.581 103.942 197.507L104.109 197.596C105.199 198.271 106.329 198.876 107.494 199.409C110.776 200.85 114.481 200.997 117.866 199.819C121.25 198.641 124.064 196.227 125.742 193.06L150.715 146.414C152.331 143.43 152.822 139.965 152.099 136.649C151.376 133.333 149.488 130.387 146.776 128.346C145.901 127.719 144.979 127.161 144.018 126.676C143.099 126.186 142.145 125.766 141.163 125.42C137.979 124.323 134.509 124.399 131.376 125.632C128.243 126.866 125.653 129.177 124.073 132.15" stroke="#2C2C2C" stroke-width="3" stroke-miterlimit="10"/>
<path d="M51.2344 90.761C46.8425 87.5022 42.7798 86.2346 39.6313 87.1578C35.6989 88.2739 30.5145 90.648 27.3699 95.7589C27.1937 96.0881 27.0238 96.4054 26.8602 96.711C23.3193 103.198 26.5196 106.669 30.3518 112.668" stroke="#2C2C2C" stroke-width="3" stroke-miterlimit="10"/>
<path d="M66.5356 100.677C66.4742 100.662 66.4117 100.651 66.3486 100.645" stroke="#2C2C2C" stroke-width="3" stroke-miterlimit="10"/>
<path d="M75.4041 113.456C75.3128 109.834 72.5144 102.54 67.6294 100.922C67.2976 100.818 66.9565 100.746 66.6109 100.706" stroke="#2C2C2C" stroke-width="3" stroke-miterlimit="10"/>
<path d="M54.332 127.243C61.1572 128.435 65.9562 130.574 70.4254 125.128C70.4585 125.067 70.4915 125.005 70.5245 124.943C74.9707 118.884 75.3384 114.045 75.3716 113.496" stroke="#2C2C2C" stroke-width="3" stroke-miterlimit="10"/>
<path d="M76.7222 101.65C75.9068 105.525 75.4701 109.47 75.4182 113.429C75.5135 119.311 75.8112 127.081 76.62 134.49C77.4391 141.549 78.7996 148.535 80.6897 155.385" stroke="#2C2C2C" stroke-width="3" stroke-miterlimit="10"/>
<path d="M30.31 112.725C30.0036 112.641 29.6791 112.569 29.3633 112.502L28.2378 112.274C22.4338 112.161 17.3541 114.954 14.9614 119.571C13.7538 121.947 13.3263 124.644 13.7398 127.277C14.3567 130.851 16.0391 134.156 18.5664 136.758C22.6122 141.092 27.2697 144.813 32.3912 147.8L32.7703 148.003C34.6286 149.066 36.4466 149.971 38.1871 150.767C47.8638 155.108 58.5415 149.868 58.8284 140.391C58.8465 140.061 58.8471 139.721 58.8341 139.385C58.5397 134.993 56.9065 130.797 54.1544 127.363C49.2671 120.855 40.8119 115.228 30.31 112.725Z" stroke="#2C2C2C" stroke-width="3" stroke-miterlimit="10"/>
<path d="M32.2833 147.981C36.5896 151.421 56.1627 169.057 61.6603 172.454C69.9383 177.573 78.677 181.906 87.7621 185.396C89.5413 186.086 91.5112 186.103 93.3017 185.443C95.0922 184.782 96.58 183.491 97.4854 181.811L126.485 127.645C127.446 125.85 127.961 123.85 127.985 121.813C128.148 109.805 130.525 97.9308 134.998 86.786C140.029 74.2687 147.589 62.9243 157.206 53.4625C157.806 51.3 157.652 48.9976 156.769 46.9343C155.886 44.871 154.327 43.1697 152.349 42.1104C150.37 41.0512 148.09 40.6971 145.883 41.1064C143.677 41.5157 141.675 42.6641 140.208 44.3625C131.295 50.669 123.709 58.6677 117.884 67.9029C112.717 76.1072 109.026 85.1526 106.978 94.6297C103.513 89.9819 99.656 85.6399 95.4489 81.6513C92.4774 78.7762 89.3377 76.0802 86.0464 73.5775L85.5347 73.1561C81.2434 69.4231 76.1196 66.7733 70.5929 65.4288C66.9117 64.5237 63.1079 64.2226 59.3302 64.5374C53.6841 65.0196 48.9782 67.2415 46.064 72.1128C45.9696 72.2891 45.8752 72.4654 45.7808 72.6417C45.5269 73.1086 45.327 73.6028 45.1849 74.1149C44.9283 74.8043 44.8581 75.5493 44.9815 76.2746C45.7879 80.4041 46.8044 84.0563 48.5269 86.9408C49.3409 88.2803 50.2534 89.5574 51.2567 90.7616C55.1878 95.5829 60.5312 99.0507 66.5356 100.677C66.8867 100.763 67.2377 100.849 67.5541 100.893C70.7103 101.599 73.9771 101.657 77.1561 101.062C80.3351 100.467 83.3601 99.232 86.0473 97.4323C86.2522 97.3038 86.4348 97.1747 86.5991 97.0584C87.1991 96.6357 87.6986 96.086 88.0622 95.4484C88.6515 94.1426 89.1451 92.7957 89.5392 91.4184C89.9038 90.0951 89.9806 88.709 89.7645 87.3535C89.1021 83.6754 86.1315 79.9865 81.6247 77.9593" stroke="#2C2C2C" stroke-width="3" stroke-miterlimit="10"/>
</g>
<defs>
<clipPath id="clip0_560_69">
<rect width="135.68" height="162.93" fill="white" transform="matrix(-0.881603 -0.471991 -0.471991 0.881603 196.518 64.0396)"/>
</clipPath>
</defs>
</svg>
