<svg xmlns="http://www.w3.org/2000/svg" viewBox="0 0 90.87 123.08"><defs><style>.cls-1,.cls-13,.cls-14,.cls-15,.cls-16,.cls-17,.cls-21,.cls-23,.cls-5{fill:none;}.cls-1,.cls-13,.cls-14,.cls-15,.cls-16,.cls-17,.cls-18,.cls-19,.cls-2,.cls-20,.cls-21,.cls-22,.cls-23,.cls-24,.cls-25,.cls-3,.cls-4,.cls-6,.cls-7{stroke:#2c2c2c;}.cls-1,.cls-13,.cls-14,.cls-15,.cls-16,.cls-18,.cls-19,.cls-2,.cls-21,.cls-22,.cls-23,.cls-24,.cls-3,.cls-4,.cls-5,.cls-6{stroke-miterlimit:10;}.cls-2,.cls-8{fill:#79bce8;}.cls-3{fill:#6397b5;}.cls-22,.cls-24,.cls-4,.cls-9{fill:#2c2c2c;}.cls-5{stroke:#fefefc;}.cls-17,.cls-20,.cls-23,.cls-24,.cls-25,.cls-5{stroke-linecap:round;}.cls-12,.cls-25,.cls-6,.cls-7{fill:#fefefc;}.cls-17,.cls-20,.cls-25,.cls-7{stroke-linejoin:round;}.cls-10{fill:#f6e0c3;}.cls-11{fill:#1d1d1b;}.cls-13,.cls-17,.cls-20{stroke-width:1.13px;}.cls-14,.cls-18{stroke-width:0.42px;}.cls-15{stroke-width:0.45px;}.cls-16{stroke-width:0.75px;}.cls-18,.cls-19,.cls-20{fill:#fdcb63;}.cls-19{stroke-width:0.3px;}.cls-21{stroke-width:0.75px;}.cls-22{stroke-width:0.43px;}.cls-23,.cls-24{stroke-width:0.65px;}.cls-25{stroke-width:0.21px;}</style></defs><title>walking</title><g id="Capa_2" data-name="Capa 2"><g id="Capa_1-2" data-name="Capa 1"><path class="cls-1" d="M53.91,69.14a1.22,1.22,0,0,0-.07-.17"/><path class="cls-2" d="M27.67,86.09a5.92,5.92,0,0,0,.38,3.37,5.85,5.85,0,0,0,2.62,2.84A47.22,47.22,0,0,1,41.23,97l.05,0a19.49,19.49,0,0,1,8,9.43,1.34,1.34,0,0,1,.07.18,29.76,29.76,0,0,1,1.47,4.93,17.83,17.83,0,0,0,10.72-9.22,40.24,40.24,0,0,0-6.64-6,39.84,39.84,0,0,0-6.22-3.64,6.75,6.75,0,0,0,3.4-1.5,7.09,7.09,0,0,0,2.39-4.71,50.78,50.78,0,0,1-26.79-.43Z"/><path class="cls-3" d="M30.67,92.3a37,37,0,0,1-6.24,3.59,37.85,37.85,0,0,1-8.12,2.63q1.94,4,3.86,7.92L30,106a20,20,0,0,0,10.5-8.58,21.23,21.23,0,0,0-9.86-5.14Z"/><path class="cls-4" d="M50.81,111.59a6.87,6.87,0,0,0,1.75,5.27,6.63,6.63,0,0,0,4,2,17.56,17.56,0,0,0,5.76-.32A17.76,17.76,0,0,0,68,116.24c.57-.36,1.15-.71,1.75-1,2.45-1.3,8.5-5.12,9.7-11.94a14.15,14.15,0,0,0-.09-5.19,8.09,8.09,0,0,0-4.82-4.77A7,7,0,0,0,72.71,93a7.4,7.4,0,0,0-6.83,3.83,25.84,25.84,0,0,1-1.51,2.31,25.16,25.16,0,0,1-2.84,3.27,17.78,17.78,0,0,1-10.72,9.22Z"/><path class="cls-4" d="M20.17,106.44l8.16-.35a3.45,3.45,0,0,1,3.1,1.63,7.64,7.64,0,0,1,1.2,4.72,8.09,8.09,0,0,1-3.67,6H18.4a6.61,6.61,0,0,1-5.34-2.69,37.81,37.81,0,0,1-2.93-4.67A36.46,36.46,0,0,1,7.9,106,5.19,5.19,0,0,1,11,99.37l.06,0a15.12,15.12,0,0,1,5.22-.83Q18.25,102.48,20.17,106.44Z"/><path class="cls-5" d="M20.17,106.44a10,10,0,0,1-3.43,5.36"/><path class="cls-6" d="M67.25,68.23h0a2.43,2.43,0,0,1,2.63.11l6.54,4.6a1,1,0,0,1,0,1.62l-3.16,2.09a1.28,1.28,0,0,1-1.71-.3l-4.66-6.27A1.27,1.27,0,0,1,67.25,68.23Z"/><path class="cls-6" d="M70.21,63.37a3,3,0,0,0,3.24,1.9,2.94,2.94,0,0,0,2.22-2,4.07,4.07,0,0,0,.11-2.5A4.43,4.43,0,0,0,72.89,58a5.5,5.5,0,0,0-3.3.58l0,0a4.06,4.06,0,0,0-1.93,2.64,8.38,8.38,0,0,0-.22,2.41,8.22,8.22,0,0,0,1.18,3.77q4.11,2.9,8.23,5.78a2.08,2.08,0,0,0,1.76.32,11.67,11.67,0,0,0,8.12-7.92,4.57,4.57,0,0,0-.86-3.53c-1.11-1.39-2.75-1.38-4.61-.83-.35.19-2.36.61-2.89,2.65a6.54,6.54,0,0,0-.13.7,2.33,2.33,0,0,0,2.13,2.62h0a3.21,3.21,0,0,0,2.46-1.18"/><path class="cls-6" d="M80.28,57.12c.19,0,2.77-1.73,4.54.68.76,1,.44,2.19.08,3.46a11.52,11.52,0,0,0-2.65-.2l-3.62,1.13c-1.48.83-2.91-.56-3-2.06h0c.39-.12,4.48-2.39,5.3-3.83a2.84,2.84,0,0,0,.35-1.55v0a1.74,1.74,0,0,0-1.64-1.58,8.23,8.23,0,0,0-6.48,2.37A2,2,0,0,0,72.88,58h0l2.73,2.11"/><path class="cls-6" d="M9.51,74.9,9,78a.55.55,0,0,0,.41.62l9,2.24a.55.55,0,0,0,.67-.63l-.52-3a.55.55,0,0,0-.52-.45c-1.31-.06-5.29-.41-7.62-2.29A.55.55,0,0,0,9.51,74.9Z"/><path class="cls-7" d="M19.64,87.32a2,2,0,0,0,.84-2.27c-.36-1.13-.77-2.19-1.11-3.34A1.08,1.08,0,0,0,18.6,81L8.92,78.53a7.38,7.38,0,0,0-3.86,3.11,7.54,7.54,0,0,0-.62,5.93,2.83,2.83,0,0,0,1.22,1.7,2.63,2.63,0,0,0,2.3.19l1-.83c0,.21-.06.91-.11,1.1a2.37,2.37,0,0,0,1.84,2.62h.06A1.78,1.78,0,0,0,12.84,91a4.23,4.23,0,0,1,.18-.62,2.36,2.36,0,0,0,0,.59,2.55,2.55,0,0,0,2.44,2.26,3.85,3.85,0,0,0,2-.36,4.12,4.12,0,0,0,2.09-2.49,2,2,0,0,0-.22-1.64l-.5-.75.91-.69"/><path class="cls-8" d="M68,15.56a3.57,3.57,0,0,1-.39,4.11,20.79,20.79,0,0,1-5.34,4.43,20.92,20.92,0,0,1-7.76,2.61v.2l-.59,0,1.65-1.82a6.68,6.68,0,0,1,.73-.68,1.63,1.63,0,0,0-1.5-2.81q-8.37,4.47-16.74,9c-5.55,3-10.66,5.87-16.2,8.85a.05.05,0,0,0,0,.08l-.15.1a7.46,7.46,0,0,0-2.42,2.59,7.72,7.72,0,0,0-.87,3l-1.45.11a3.46,3.46,0,0,1-3.25-1.6A3.62,3.62,0,0,1,15,39l11.61-5.91L49.89,21.22l14.47-7.37A3.54,3.54,0,0,1,68,15.56Z"/><path class="cls-9" d="M54.47,26.91l6.42.26a7.08,7.08,0,0,1-7.65,4.2,3,3,0,0,0-.11-.32l-6.6-1.74-.48.21-.12,0L29.65,36.75c-.25.68-1.81,2.14-1.46,4.06a8,8,0,0,0,1.38,3.28.2.2,0,0,1-.23.3,26.2,26.2,0,0,1-3.86-1.54c-2.18-1.07-2.42-2.28-3.68-3.34,0,0,0,0,0,0a.05.05,0,0,1,0-.08c5.54-3,10.65-5.88,16.2-8.85s11.16-6,16.74-9a1.63,1.63,0,0,1,1.5,2.81,6.68,6.68,0,0,0-.73.68l-1.65,1.82Z"/><path class="cls-10" d="M46.05,29.52l6.47,1.71c.13,0,.38.09.72.14a32,32,0,0,1,1.88,8.15,32.51,32.51,0,0,1,.09,5.07,14.75,14.75,0,0,1,2.62,5.33.24.24,0,0,1,0,.08,9,9,0,0,1-3.18,9.19,17.25,17.25,0,0,1-11.55,3.93l-.64,0A14.55,14.55,0,0,1,30.1,53.67c-.21-2.1-.74-4-.83-6.19a9.33,9.33,0,0,1-2.81,2.46l-.29.13a7.68,7.68,0,0,1-3.38.59,5.57,5.57,0,0,1-3.13-1.84,5.64,5.64,0,0,1-1.31-3.63,7.72,7.72,0,0,1,.87-3,7.46,7.46,0,0,1,2.42-2.59l.15-.1s0,0,0,0c1.26,1.06,1.5,2.27,3.68,3.34a26.2,26.2,0,0,0,3.86,1.54.2.2,0,0,0,.23-.3,8,8,0,0,1-1.38-3.28c-.35-1.92,1.21-3.38,1.46-4.06l16.28-7.26Zm5.27,11.87c0-3.14-1.92-5.7-4.35-5.71-2.12,0-3.9,1.92-4.33,4.5a4.36,4.36,0,0,0-3.79-2.91c-2.43,0-4.41,2.52-4.43,5.65s1.93,5.69,4.35,5.71c2.12,0,3.9-1.92,4.33-4.5A4.36,4.36,0,0,0,46.9,47C49.32,47.05,51.3,44.52,51.32,41.39Z"/><path class="cls-11" d="M53.13,31.05a3,3,0,0,1,.11.32c-.34-.05-.59-.11-.72-.14l-6.47-1.71.48-.21Z"/><path class="cls-12" d="M47,35.68c2.43,0,4.37,2.57,4.35,5.71s-2,5.66-4.42,5.65a4.36,4.36,0,0,1-3.8-2.91h0A8.77,8.77,0,0,0,43.2,43a7,7,0,0,0-.56-2.8C43.07,37.6,44.85,35.66,47,35.68ZM50.63,40c0-1.73-1-3.15-2.31-3.15S46,38.2,46,39.93s1,3.15,2.31,3.16S50.62,41.7,50.63,40Z"/><ellipse id="lefteye" class="cls-9" cx="48.3" cy="39.95" rx="3.14" ry="2.33" transform="translate(8.02 87.97) rotate(-89.61)"/><path class="cls-8" d="M48.83,19c.36.73.71,1.46,1.06,2.19L26.62,33.09l.11-2.71.76-17.51a26.7,26.7,0,0,1-3.93,4.63,27,27,0,0,1-5.24,3.8.66.66,0,0,1-.95-.75A25,25,0,0,1,25.92,7.66a24.08,24.08,0,0,1,3.84-2.41,10.72,10.72,0,0,1,10.36.36l.43.28a12.84,12.84,0,0,1,4.38,5.05Z"/><path class="cls-12" d="M43.2,43a8.77,8.77,0,0,1-.1,1.15,6.89,6.89,0,0,1-.55-2.8,7.15,7.15,0,0,1,.09-1.15A7,7,0,0,1,43.2,43Z"/><path class="cls-12" d="M43.1,44.13h0c-.43,2.58-2.21,4.51-4.33,4.5-2.42,0-4.37-2.57-4.35-5.71s2-5.66,4.43-5.65a4.36,4.36,0,0,1,3.79,2.91,7.15,7.15,0,0,0-.09,1.15A6.89,6.89,0,0,0,43.1,44.13Zm-.59-2.65c0-1.74-1-3.15-2.32-3.16s-2.34,1.39-2.35,3.13,1,3.15,2.31,3.16S42.5,43.22,42.51,41.48Z"/><path id="righteye" class="cls-9" d="M40.19,38.32c1.29,0,2.33,1.42,2.32,3.16s-1.07,3.13-2.36,3.13-2.33-1.43-2.31-3.16S38.9,38.31,40.19,38.32Z"/><path class="cls-9" d="M30.1,53.67c0,.32.06.65.07,1a23,23,0,0,1-3.44,2.19,14.28,14.28,0,0,1-3.63.95A6.71,6.71,0,0,0,24,54.05c-.11-1.7-1.23-2.83-1.18-3.39a7.68,7.68,0,0,0,3.38-.59l.29-.13a7.65,7.65,0,0,0,2.63-2c0,.35,0,.69,0,1A15.09,15.09,0,0,0,30.1,53.67Z"/><path class="cls-11" d="M29.27,47.48c.09,2.16.62,4.09.83,6.19a15.09,15.09,0,0,1-1-4.71c0-.35,0-.69,0-1a7.65,7.65,0,0,1-2.63,2A9.33,9.33,0,0,0,29.27,47.48Z"/><path class="cls-13" d="M22.79,50.66a5.57,5.57,0,0,1-3.13-1.84,5.64,5.64,0,0,1-1.31-3.63,7.72,7.72,0,0,1,.87-3,7.46,7.46,0,0,1,2.42-2.59"/><path class="cls-13" d="M30.25,36.57l15.8-7,.48-.21,6.6,1.74a3,3,0,0,1,.11.32,32,32,0,0,1,1.88,8.15,32.51,32.51,0,0,1,.09,5.07,14.75,14.75,0,0,1,2.62,5.33.24.24,0,0,1,0,.08,9,9,0,0,1-3.18,9.19,17.25,17.25,0,0,1-11.55,3.93l-.64,0A14.55,14.55,0,0,1,30.1,53.67a15.09,15.09,0,0,1-1-4.71c0-.35,0-.69,0-1a7.65,7.65,0,0,1-2.63,2"/><path class="cls-13" d="M49.89,21.22l14.47-7.37a3.54,3.54,0,0,1,3.22,5.82,20.79,20.79,0,0,1-5.34,4.43,20.92,20.92,0,0,1-7.76,2.61"/><path class="cls-13" d="M18.35,45.19l-1.45.11a3.46,3.46,0,0,1-3.25-1.6A3.62,3.62,0,0,1,15,39l11.61-5.91"/><path class="cls-14" d="M26.46,49.94a9.33,9.33,0,0,0,2.81-2.46c.09,2.16.62,4.09.83,6.19,0,.32.06.65.07,1a23,23,0,0,1-3.44,2.19,14.28,14.28,0,0,1-3.63.95A6.71,6.71,0,0,0,24,54.05c-.11-1.7-1.23-2.83-1.18-3.39"/><path class="cls-13" d="M22.79,50.66a7.68,7.68,0,0,0,3.38-.59l.29-.13"/><path class="cls-13" d="M54.47,26.91l6.42.26a7.08,7.08,0,0,1-7.65,4.2c-.34-.05-.59-.11-.72-.14l-6.47-1.71-.12,0L29.65,36.75c-.25.68-1.81,2.14-1.46,4.06a8,8,0,0,0,1.38,3.28.2.2,0,0,1-.23.3,26.2,26.2,0,0,1-3.86-1.54c-2.18-1.07-2.42-2.28-3.68-3.34,0,0,0,0,0,0a.05.05,0,0,1,0-.08c5.54-3,10.65-5.88,16.2-8.85s11.16-6,16.74-9a1.63,1.63,0,0,1,1.5,2.81,6.68,6.68,0,0,0-.73.68l-1.65,1.82Z"/><path class="cls-14" d="M21.55,46.66a3.62,3.62,0,0,1,.56-1.6,2.74,2.74,0,0,1,1.57-1.16"/><line class="cls-14" x1="24.26" y1="46.62" x2="22.11" y2="45.06"/><path class="cls-15" d="M43.1,44.13c-.43,2.58-2.21,4.51-4.33,4.5-2.42,0-4.37-2.57-4.35-5.71s2-5.66,4.43-5.65a4.36,4.36,0,0,1,3.79,2.91A7,7,0,0,1,43.2,43a8.77,8.77,0,0,1-.1,1.15"/><path class="cls-15" d="M42.64,40.18c.43-2.58,2.21-4.52,4.33-4.5,2.43,0,4.37,2.57,4.35,5.71s-2,5.66-4.42,5.65a4.36,4.36,0,0,1-3.8-2.91h0"/><line class="cls-16" x1="44.24" y1="48.31" x2="45.96" y2="48.37"/><path class="cls-15" d="M42.51,41.48c0,1.74-1.07,3.13-2.36,3.13s-2.33-1.43-2.31-3.16,1.06-3.14,2.35-3.13S42.52,39.74,42.51,41.48Z"/><ellipse class="cls-15" cx="48.3" cy="39.95" rx="3.14" ry="2.33" transform="translate(8.02 87.97) rotate(-89.61)"/><path class="cls-16" d="M32.83,39.57s.6-4.83,7.12-4.71"/><path class="cls-16" d="M42,35.52s2.36-4.26,8.36-1.7"/><path class="cls-17" d="M27.49,12.87a26.7,26.7,0,0,1-3.93,4.63,27,27,0,0,1-5.24,3.8.66.66,0,0,1-.95-.75A25,25,0,0,1,25.92,7.66a24.08,24.08,0,0,1,3.84-2.41,10.72,10.72,0,0,1,10.36.36l.43.28a12.84,12.84,0,0,1,4.38,5.05L48.83,19c.36.73.71,1.46,1.06,2.19L26.62,33.09l.11-2.71.76-17.51"/><path class="cls-18" d="M27.27,17.86l1,.06a.75.75,0,0,0,.63-.3l1.56-2a.14.14,0,0,1,.24.05l.66,2.47a.78.78,0,0,0,.48.52l2.41.85a.14.14,0,0,1,0,.25l-2.15,1.39a.78.78,0,0,0-.34.61l-.07,2.56a.13.13,0,0,1-.22.1l-2-1.61a.76.76,0,0,0-.68-.13L27,23.18l.11-2.38Z"/><path class="cls-19" d="M44.18,9.72l-.57.41a.52.52,0,0,0-.21.44l.05,1.79a.09.09,0,0,1-.15.08l-1.45-1a.52.52,0,0,0-.48-.07l-1.69.6a.09.09,0,0,1-.12-.12l.54-1.7A.55.55,0,0,0,40,9.63l-1.1-1.41A.1.1,0,0,1,39,8.06h1.79a.51.51,0,0,0,.43-.23L42,6.73l1,1.34Z"/><polygon class="cls-20" points="48.83 19.03 26.73 30.38 26.62 33.09 49.89 21.22 48.83 19.03"/><path class="cls-21" d="M43.25,52.87l2.94-.46a.84.84,0,0,0,.66-.53,2,2,0,0,1,1.45-1.33c1.18-.19,2.37,1.1,2.64,2.86s-.46,3.34-1.65,3.53a2,2,0,0,1-1.78-.83.83.83,0,0,0-.79-.31l-2.95.46"/><ellipse class="cls-22" cx="48.87" cy="53.73" rx="1.06" ry="1.45" transform="translate(-7.68 8.16) rotate(-8.85)"/><path class="cls-23" d="M41.14,51.89a3,3,0,0,1,.64,5.8"/><ellipse class="cls-24" cx="64.02" cy="45.45" rx="1.61" ry="1.02"/><path class="cls-23" d="M65.63,45.45v-8A.47.47,0,0,1,66.2,37a3.82,3.82,0,0,1,1.52.67,3.72,3.72,0,0,1,.46.41A1.14,1.14,0,0,1,68,39.8l-.48.3"/><ellipse class="cls-24" cx="67.82" cy="32.97" rx="1.61" ry="1.02"/><ellipse class="cls-24" cx="73.86" cy="32.97" rx="1.61" ry="1.02"/><path class="cls-23" d="M69.43,33V25a.49.49,0,0,1,.58-.49l3.74,1a2,2,0,0,1,1.53,1.56,2,2,0,0,1,0,.34v5.15"/><path class="cls-25" d="M89.24,60A6.47,6.47,0,0,0,88,55.43,7.18,7.18,0,0,0,85,53a5.77,5.77,0,0,0-5.06-3.85,12.54,12.54,0,0,0-6.27,1.18,12.36,12.36,0,0,0-3.3,2.33,6,6,0,0,0-1.25,1.82,9.35,9.35,0,0,0-1.37.58h0l-.08,0a8.06,8.06,0,0,0-3.89,5.21,12.48,12.48,0,0,0-.33,3.28q-2.64-1.07-5.26-2.18A13,13,0,0,0,62,50.13a6.37,6.37,0,0,0,2.07.34c3.14,0,5.61-2.2,5.61-5v-2h0l.47-.3a5.09,5.09,0,0,0,2.36-3.73,4.94,4.94,0,0,0-.07-1.63,6.34,6.34,0,0,0,1.46.17c3.14,0,5.6-2.21,5.6-5a4.52,4.52,0,0,0-.15-1.17V27.4a6.77,6.77,0,0,0-.08-1,6.06,6.06,0,0,0-4.43-4.75l-3.2-.88a7.51,7.51,0,0,0-.17-7.21,7.6,7.6,0,0,0-7.68-3.66,4.28,4.28,0,0,0-1.21.39L51.72,15.8,48.53,9.19a16.89,16.89,0,0,0-2.81-4.1l-.55-.75A4,4,0,0,0,43.4,3c-.21-.15-.41-.31-.63-.46l-.56-.36A14.82,14.82,0,0,0,28,1.67,28,28,0,0,0,23.47,4.5a28.75,28.75,0,0,0-9.94,15,4.65,4.65,0,0,0,6.72,5.35A31.37,31.37,0,0,0,23,23.07c0,.13,0,.27,0,.41l-.31,7.11L13.2,35.44c-.14.07-.27.15-.4.23a7.61,7.61,0,0,0-2.62,10,7.34,7.34,0,0,0,5,3.45,9,9,0,0,0,1.41,2.26,9.41,9.41,0,0,0,3.2,2.44,1.35,1.35,0,0,1,.17.45,2.74,2.74,0,0,1-.35,1.51,4,4,0,0,0-.27,3.35,27.89,27.89,0,0,0-13,13.22l0,.09a4.32,4.32,0,0,0-.72,1.8l-.26,1.6A10.9,10.9,0,0,0,1.63,79.6a11.53,11.53,0,0,0-1,9.09,6.79,6.79,0,0,0,3.06,4,6.87,6.87,0,0,0,2.23.81,6.86,6.86,0,0,0,3,2.4,9,9,0,0,0-4.34,4.31,9.14,9.14,0,0,0-.4,7.07A42.7,42.7,0,0,0,6.59,113a41.5,41.5,0,0,0,3.25,5.17,10.65,10.65,0,0,0,8.56,4.32H29a4,4,0,0,0,2.09-.59,12.06,12.06,0,0,0,5.57-9.09,11.55,11.55,0,0,0-.77-5.1c.45-.27.9-.56,1.33-.86a24,24,0,0,0,4.63-4.32A15.49,15.49,0,0,1,45.56,108s.06.14.06.15A27.13,27.13,0,0,1,46.79,112a10.52,10.52,0,0,0,9.38,10.88,22.77,22.77,0,0,0,2.34.12h0a21.45,21.45,0,0,0,11.58-3.35c.55-.35,1-.63,1.48-.87,3-1.61,10.28-6.28,11.77-14.78a18.44,18.44,0,0,0-.1-6.66,4,4,0,0,0-.17-.59,12,12,0,0,0-7.3-7.19A11,11,0,0,0,73,89l-.77,0a11.47,11.47,0,0,0-9.81,5.85c-.34.58-.71,1.14-1.09,1.68a44,44,0,0,0-4.12-3.35c-.29-.21-.58-.42-.88-.62a11.29,11.29,0,0,0,2.07-5.22,30.42,30.42,0,0,0,1-4.19A13.32,13.32,0,0,0,64,84.29a15.2,15.2,0,0,0,10.89-4,4,4,0,0,0,.53-.3l3.17-2.09a3.83,3.83,0,0,0,.51-.39l.53-.1a15.89,15.89,0,0,0,6.79-3.87,15.71,15.71,0,0,0,4.1-6.76,3.57,3.57,0,0,0,.11-.47A8.59,8.59,0,0,0,89.24,60Z"/><path class="cls-4" d="M53.84,69c.91,6.36,5.46,11,10.47,11.33a11.17,11.17,0,0,0,7.93-3L66,69c-3.44-1.34-6.94-2.76-10.5-4.29q-3.73-1.59-7.29-3.21a10,10,0,0,1-4.53,1.66,10.26,10.26,0,0,1-6.61-1.66A23.94,23.94,0,0,0,23,62c-8.65,3.08-12.3,10.64-13.14,12.29a12,12,0,0,0,5.27,2.33,12.17,12.17,0,0,0,3.35.27A11.75,11.75,0,0,1,21.78,72c4.12-3.55,9.33-2.79,10.18-2.65a38.61,38.61,0,0,0-4.29,16.71,46.94,46.94,0,0,0,26.79.43,24.9,24.9,0,0,0-.55-17.37"/><path class="cls-1" d="M53.91,69.15c0-.06,0-.12-.07-.17"/><path class="cls-2" d="M27.67,86.09A5.92,5.92,0,0,0,28,89.47a6,6,0,0,0,2.63,2.84A46.89,46.89,0,0,1,41.22,97l.06,0a19.56,19.56,0,0,1,8,9.44c0,.06,0,.12.07.17a30,30,0,0,1,1.47,4.93,17.65,17.65,0,0,0,5.6-2.92,18,18,0,0,0,5.12-6.29,39.48,39.48,0,0,0-6.65-6,38.58,38.58,0,0,0-6.21-3.64,6.84,6.84,0,0,0,3.4-1.5,7.1,7.1,0,0,0,2.39-4.72,50.78,50.78,0,0,1-26.79-.43Z"/><path class="cls-3" d="M30.67,92.31a38.45,38.45,0,0,1-6.24,3.59,37.93,37.93,0,0,1-8.12,2.62c1.29,2.64,2.57,5.29,3.86,7.93L30,106a19.76,19.76,0,0,0,4.84-2.49,20.22,20.22,0,0,0,5.66-6.08,21,21,0,0,0-9.86-5.14Z"/><path class="cls-4" d="M50.81,111.59a6.91,6.91,0,0,0,1.74,5.28,6.74,6.74,0,0,0,4.05,2A17.65,17.65,0,0,0,68,116.25c.57-.37,1.15-.71,1.75-1,2.45-1.29,8.5-5.11,9.69-11.93a14,14,0,0,0-.08-5.2,8.11,8.11,0,0,0-4.82-4.77A7.92,7.92,0,0,0,72.71,93a7.41,7.41,0,0,0-6.83,3.84,27.36,27.36,0,0,1-1.51,2.31,26.67,26.67,0,0,1-2.84,3.27,17.8,17.8,0,0,1-10.72,9.21Z"/><path class="cls-4" d="M20.17,106.45l8.15-.35a3.48,3.48,0,0,1,3.11,1.62,7.67,7.67,0,0,1,1.19,4.73,8.12,8.12,0,0,1-3.66,6H18.4a6.64,6.64,0,0,1-5.34-2.69,38.41,38.41,0,0,1-2.94-4.68A37.85,37.85,0,0,1,7.89,106,5.21,5.21,0,0,1,11,99.37l.06,0a15.37,15.37,0,0,1,5.22-.83C17.6,101.16,18.88,103.81,20.17,106.45Z"/><path class="cls-5" d="M20.17,106.45a10.12,10.12,0,0,1-3.43,5.36"/><path class="cls-6" d="M67.25,68.24h0a2.43,2.43,0,0,1,2.63.11l6.54,4.59a1,1,0,0,1,0,1.62l-3.17,2.09a1.25,1.25,0,0,1-1.7-.3l-4.66-6.26A1.27,1.27,0,0,1,67.25,68.24Z"/><path class="cls-6" d="M70.21,63.38a3,3,0,0,0,3.24,1.9,2.94,2.94,0,0,0,2.22-2,4,4,0,0,0,.11-2.49A4.43,4.43,0,0,0,72.88,58a5.5,5.5,0,0,0-3.29.59h0a4,4,0,0,0-1.93,2.64,8.08,8.08,0,0,0-.22,2.41,8.23,8.23,0,0,0,1.18,3.78l8.22,5.78a2.13,2.13,0,0,0,1.76.32,11.71,11.71,0,0,0,8.13-7.92,4.6,4.6,0,0,0-.86-3.54c-1.11-1.38-2.75-1.38-4.61-.83-.35.2-2.36.61-2.89,2.65a4.86,4.86,0,0,0-.13.71,2.32,2.32,0,0,0,2.13,2.61h0a3.24,3.24,0,0,0,2.47-1.18"/><path class="cls-6" d="M80.28,57.12c.18,0,2.77-1.72,4.54.69.76,1,.43,2.19.08,3.45a12.11,12.11,0,0,0-2.65-.2l-3.63,1.13c-1.48.84-2.9-.56-3-2h0c.38-.12,4.47-2.4,5.3-3.83a2.86,2.86,0,0,0,.35-1.55v0a1.74,1.74,0,0,0-1.64-1.59,8.57,8.57,0,0,0-4.26.8,8.28,8.28,0,0,0-2.22,1.57A2,2,0,0,0,72.88,58h0l2.74,2.12"/><path class="cls-6" d="M9.5,74.91,9,78a.54.54,0,0,0,.41.62l9,2.25a.55.55,0,0,0,.67-.63l-.53-3a.54.54,0,0,0-.51-.46c-1.31-.06-5.29-.4-7.63-2.28A.55.55,0,0,0,9.5,74.91Z"/><path class="cls-7" d="M19.63,87.32a2,2,0,0,0,.85-2.26c-.36-1.13-.77-2.19-1.11-3.34A1.09,1.09,0,0,0,18.6,81L8.92,78.54a7.35,7.35,0,0,0-3.86,3.11,7.54,7.54,0,0,0-.62,5.93,2.81,2.81,0,0,0,1.22,1.69,2.64,2.64,0,0,0,2.3.2l1-.83c0,.21-.05.91-.1,1.1a2.34,2.34,0,0,0,1.84,2.61h.06A1.79,1.79,0,0,0,12.84,91a4.34,4.34,0,0,1,.18-.63,3,3,0,0,0,0,.59,2.57,2.57,0,0,0,2.45,2.27,3.78,3.78,0,0,0,2-.37,4.13,4.13,0,0,0,2.09-2.49,2,2,0,0,0-.22-1.63L18.8,88l.91-.7"/><path class="cls-8" d="M68,15.57a3.55,3.55,0,0,1-.39,4.1,20.61,20.61,0,0,1-13.1,7v.2l-.59,0,1.65-1.82a9.46,9.46,0,0,1,.73-.68,1.63,1.63,0,0,0-1.5-2.81L38,30.55c-5.55,3-10.66,5.87-16.21,8.85a.08.08,0,0,0,0,.09l-.15.09a7.51,7.51,0,0,0-2.41,2.6,7.64,7.64,0,0,0-.87,3l-1.45.11a3.47,3.47,0,0,1-3.25-1.59A3.62,3.62,0,0,1,15,39l11.6-5.91L49.89,21.23l14.47-7.38A3.55,3.55,0,0,1,68,15.57Z"/><path class="cls-9" d="M54.47,26.91l6.42.27a7.09,7.09,0,0,1-7.65,4.19l-.12-.32-6.59-1.74-.48.22-.12,0L29.65,36.76c-.25.67-1.81,2.13-1.47,4.06a8.25,8.25,0,0,0,1.38,3.28.2.2,0,0,1-.22.3,27.92,27.92,0,0,1-3.87-1.54c-2.17-1.07-2.42-2.28-3.67-3.35l0,0a.08.08,0,0,1,0-.09c5.55-3,10.66-5.87,16.21-8.85l16.74-9a1.63,1.63,0,0,1,1.5,2.81,9.46,9.46,0,0,0-.73.68l-1.65,1.82Z"/><path class="cls-10" d="M46.05,29.53l6.47,1.7c.12,0,.38.09.72.14a32.09,32.09,0,0,1,1.88,8.15,31.37,31.37,0,0,1,.08,5.08,14.58,14.58,0,0,1,2.63,5.33s0,0,0,.08a9,9,0,0,1-3.19,9.18,17.2,17.2,0,0,1-11.54,3.93c-.22,0-.43,0-.64,0A14.54,14.54,0,0,1,30.1,53.67c-.21-2.1-.74-4-.83-6.19A9.14,9.14,0,0,1,26.45,50l-.28.13a7.67,7.67,0,0,1-3.39.58,5.47,5.47,0,0,1-4.43-5.47,7.64,7.64,0,0,1,.87-3,7.51,7.51,0,0,1,2.41-2.6l.15-.09,0,0c1.25,1.07,1.5,2.28,3.67,3.35a27.92,27.92,0,0,0,3.87,1.54.2.2,0,0,0,.22-.3,8.25,8.25,0,0,1-1.38-3.28c-.34-1.93,1.22-3.39,1.47-4.06l16.28-7.27Zm5.27,11.86c0-3.13-1.92-5.69-4.35-5.71-2.12,0-3.9,1.92-4.33,4.51a4.34,4.34,0,0,0-3.79-2.91c-2.43,0-4.41,2.51-4.43,5.65s1.92,5.69,4.35,5.71c2.12,0,3.9-1.92,4.33-4.5A4.35,4.35,0,0,0,46.9,47C49.32,47.06,51.3,44.53,51.32,41.39Z"/><path class="cls-11" d="M53.12,31.05l.12.32c-.34-.05-.6-.11-.72-.14l-6.47-1.7.48-.22Z"/><path class="cls-12" d="M47,35.68c2.43,0,4.37,2.58,4.35,5.71s-2,5.67-4.42,5.65a4.35,4.35,0,0,1-3.8-2.9h0A7.11,7.11,0,0,0,43.19,43a6.86,6.86,0,0,0-.55-2.8C43.07,37.6,44.85,35.67,47,35.68ZM50.63,40c0-1.73-1-3.15-2.32-3.16S46,38.2,46,39.94s1,3.15,2.31,3.16S50.62,41.71,50.63,40Z"/><ellipse class="cls-9" cx="48.29" cy="39.95" rx="3.14" ry="2.33" transform="translate(8.01 87.97) rotate(-89.61)"/><path class="cls-8" d="M48.83,19l1.06,2.2L26.61,33.1l.12-2.71.76-17.52a26,26,0,0,1-3.94,4.63,26.5,26.5,0,0,1-5.24,3.81.65.65,0,0,1-.94-.75A25,25,0,0,1,25.92,7.67a23.38,23.38,0,0,1,3.84-2.41,10.7,10.7,0,0,1,10.35.36l.44.28a12.71,12.71,0,0,1,4.37,5Q46.88,15,48.83,19Z"/><path class="cls-12" d="M43.19,43a7.11,7.11,0,0,1-.09,1.14,7,7,0,0,1-.56-2.8,8.33,8.33,0,0,1,.1-1.14A6.86,6.86,0,0,1,43.19,43Z"/><path class="cls-12" d="M43.1,44.13h0c-.43,2.58-2.21,4.51-4.33,4.5-2.43,0-4.37-2.58-4.35-5.71s2-5.67,4.43-5.65a4.34,4.34,0,0,1,3.79,2.91,8.33,8.33,0,0,0-.1,1.14A7,7,0,0,0,43.1,44.13Zm-.6-2.64c0-1.74-1-3.15-2.31-3.16s-2.35,1.39-2.36,3.12,1,3.15,2.32,3.16S42.49,43.22,42.5,41.49Z"/><path class="cls-9" d="M40.19,38.33c1.29,0,2.33,1.42,2.31,3.16s-1.07,3.13-2.35,3.12-2.33-1.42-2.32-3.16S38.9,38.32,40.19,38.33Z"/><path class="cls-9" d="M30.1,53.67c0,.33.06.65.07,1a23,23,0,0,1-3.44,2.19,14.2,14.2,0,0,1-3.63.94A6.69,6.69,0,0,0,24,54.05c-.11-1.7-1.23-2.82-1.19-3.39a7.67,7.67,0,0,0,3.39-.58l.28-.13a7.71,7.71,0,0,0,2.64-2c0,.35,0,.7,0,1A14.75,14.75,0,0,0,30.1,53.67Z"/><path class="cls-11" d="M29.27,47.48c.09,2.17.62,4.09.83,6.19a14.75,14.75,0,0,1-1-4.71c0-.34,0-.69,0-1a7.71,7.71,0,0,1-2.64,2A9.14,9.14,0,0,0,29.27,47.48Z"/><path class="cls-13" d="M22.78,50.66a5.47,5.47,0,0,1-4.43-5.47,7.64,7.64,0,0,1,.87-3,7.51,7.51,0,0,1,2.41-2.6"/><path class="cls-13" d="M30.25,36.58l15.8-7,.48-.22,6.59,1.74.12.32a32.09,32.09,0,0,1,1.88,8.15,31.37,31.37,0,0,1,.08,5.08,14.58,14.58,0,0,1,2.63,5.33s0,0,0,.08a9,9,0,0,1-3.19,9.18,17.2,17.2,0,0,1-11.54,3.93c-.22,0-.43,0-.64,0A14.54,14.54,0,0,1,30.1,53.67a14.75,14.75,0,0,1-1-4.71c0-.34,0-.69,0-1a7.71,7.71,0,0,1-2.64,2"/><path class="cls-13" d="M49.89,21.23l14.47-7.38a3.54,3.54,0,0,1,3.22,5.82,20.61,20.61,0,0,1-13.1,7"/><path class="cls-13" d="M18.35,45.19l-1.45.11a3.47,3.47,0,0,1-3.25-1.59A3.62,3.62,0,0,1,15,39l11.6-5.91"/><path class="cls-14" d="M26.45,50a9.14,9.14,0,0,0,2.82-2.47c.09,2.17.62,4.09.83,6.19,0,.33.06.65.07,1a23,23,0,0,1-3.44,2.19,14.2,14.2,0,0,1-3.63.94A6.69,6.69,0,0,0,24,54.05c-.11-1.7-1.23-2.82-1.19-3.39"/><path class="cls-13" d="M22.78,50.66a7.67,7.67,0,0,0,3.39-.58l.28-.13"/><path class="cls-13" d="M54.47,26.91l6.42.27a7.09,7.09,0,0,1-7.65,4.19c-.34-.05-.6-.11-.72-.14l-6.47-1.7-.12,0L29.65,36.76c-.25.67-1.81,2.13-1.47,4.06a8.25,8.25,0,0,0,1.38,3.28.2.2,0,0,1-.22.3,27.92,27.92,0,0,1-3.87-1.54c-2.17-1.07-2.42-2.28-3.67-3.35l0,0a.08.08,0,0,1,0-.09c5.55-3,10.66-5.87,16.21-8.85l16.74-9a1.63,1.63,0,0,1,1.5,2.81,9.46,9.46,0,0,0-.73.68l-1.65,1.82Z"/><path class="cls-14" d="M21.54,46.67a3.67,3.67,0,0,1,.56-1.61,2.86,2.86,0,0,1,1.57-1.16"/><line class="cls-14" x1="24.26" y1="46.62" x2="22.1" y2="45.06"/><path class="cls-15" d="M43.1,44.14c-.43,2.58-2.21,4.51-4.33,4.5-2.43,0-4.37-2.58-4.35-5.71s2-5.67,4.43-5.65a4.34,4.34,0,0,1,3.79,2.91,6.86,6.86,0,0,1,.55,2.8,7.11,7.11,0,0,1-.09,1.14"/><path class="cls-15" d="M42.64,40.19c.43-2.59,2.21-4.52,4.33-4.51,2.43,0,4.37,2.58,4.35,5.71s-2,5.67-4.42,5.65a4.35,4.35,0,0,1-3.8-2.9h0"/><line class="cls-16" x1="44.24" y1="48.32" x2="45.96" y2="48.37"/><path class="cls-15" d="M42.5,41.49c0,1.73-1.07,3.13-2.35,3.12s-2.33-1.42-2.32-3.16,1.07-3.13,2.36-3.12S42.52,39.75,42.5,41.49Z"/><ellipse class="cls-15" cx="48.29" cy="39.95" rx="3.14" ry="2.33" transform="translate(8.01 87.97) rotate(-89.61)"/><path class="cls-16" d="M32.83,39.57s.59-4.83,7.12-4.7"/><path class="cls-16" d="M42,35.52s2.36-4.25,8.36-1.7"/><path class="cls-17" d="M27.49,12.87a26,26,0,0,1-3.94,4.63,26.5,26.5,0,0,1-5.24,3.81.65.65,0,0,1-.94-.75A25,25,0,0,1,25.92,7.67a23.38,23.38,0,0,1,3.84-2.41,10.7,10.7,0,0,1,10.35.36l.44.28a12.71,12.71,0,0,1,4.37,5q2,4.05,3.91,8.09l1.06,2.2L26.61,33.1l.12-2.71.76-17.52"/><path class="cls-18" d="M27.27,17.87l1,.05a.75.75,0,0,0,.64-.29l1.55-2a.14.14,0,0,1,.25.05l.66,2.47a.75.75,0,0,0,.47.51l2.42.86a.14.14,0,0,1,0,.24l-2.15,1.4a.74.74,0,0,0-.34.61l-.07,2.55a.14.14,0,0,1-.22.11l-2-1.61a.75.75,0,0,0-.69-.14L27,23.19l.11-2.38Z"/><path class="cls-19" d="M44.17,9.72l-.56.42a.51.51,0,0,0-.21.44l.05,1.78a.1.1,0,0,1-.15.09l-1.45-1a.56.56,0,0,0-.49-.07l-1.68.61a.09.09,0,0,1-.12-.12l.54-1.7A.54.54,0,0,0,40,9.64l-1.1-1.42A.09.09,0,0,1,39,8.07h1.78a.51.51,0,0,0,.43-.23L42,6.73l1,1.34Z"/><polygon class="cls-20" points="48.83 19.03 26.73 30.39 26.61 33.09 49.89 21.23 48.83 19.03"/><path class="cls-21" d="M43.24,52.88l2.95-.46a.86.86,0,0,0,.66-.53,2,2,0,0,1,1.45-1.34c1.18-.18,2.37,1.1,2.64,2.86s-.47,3.35-1.65,3.53a2,2,0,0,1-1.78-.83.85.85,0,0,0-.79-.3l-2.95.46"/><ellipse class="cls-22" cx="48.87" cy="53.74" rx="1.06" ry="1.45" transform="translate(-7.69 8.16) rotate(-8.85)"/><path class="cls-23" d="M41.14,51.9a3,3,0,0,1,.63,5.8"/><ellipse class="cls-24" cx="64.02" cy="45.46" rx="1.61" ry="1.02"/><path class="cls-23" d="M65.62,45.46v-8A.49.49,0,0,1,66.2,37a3.77,3.77,0,0,1,1.51.68,4.9,4.9,0,0,1,.47.4A1.14,1.14,0,0,1,68,39.8l-.48.3"/><ellipse class="cls-24" cx="67.82" cy="32.98" rx="1.61" ry="1.02"/><ellipse class="cls-24" cx="73.85" cy="32.98" rx="1.61" ry="1.02"/><path class="cls-23" d="M69.43,33V25a.48.48,0,0,1,.57-.48l3.75,1a1.94,1.94,0,0,1,1.56,1.91v5.14"/><path class="cls-25" d="M45.15,66.11l1.11,2.24a1.49,1.49,0,0,0,1.13.83l2.48.36a.17.17,0,0,1,.09.28l-1.79,1.75a1.52,1.52,0,0,0-.44,1.34l.43,2.46a.17.17,0,0,1-.24.18L45.7,74.38a1.51,1.51,0,0,0-1.4,0l-2.22,1.17a.17.17,0,0,1-.24-.18l.43-2.46a1.52,1.52,0,0,0-.44-1.34L40,69.82a.17.17,0,0,1,.09-.28l2.48-.36a1.49,1.49,0,0,0,1.13-.83l1.11-2.24A.17.17,0,0,1,45.15,66.11Z"/></g></g></svg>