<svg width="759" height="429" viewBox="0 0 759 429" fill="none" xmlns="http://www.w3.org/2000/svg">
<path d="M606.002 205C571.502 261.5 526.702 371.4 407.502 393C288.302 414.599 75.502 398.333 25.002 393" stroke="#79BCE8" stroke-width="50" stroke-linecap="round"/>
<path d="M515.643 346.639C516.204 346.911 516.57 347.143 516.74 347.334C517.143 347.789 517.111 348.502 516.645 349.471C516.41 349.978 516.173 350.338 515.933 350.55C515.706 350.752 515.467 350.867 515.215 350.898C514.966 350.905 514.752 350.881 514.574 350.825C514.252 350.703 512.825 350.033 510.292 348.815L509.767 349.344L507.503 351.35L509.302 353.38C509.546 353.655 509.72 353.875 509.823 354.04C509.928 354.182 510.012 354.386 510.075 354.65C510.194 355.122 509.87 355.698 509.104 356.377C508.266 357.12 507.578 357.333 507.042 357.017C506.79 356.877 506.478 356.598 506.106 356.179L497.273 346.209C497.029 345.934 496.855 345.725 496.75 345.582C496.647 345.417 496.563 345.203 496.5 344.938C496.381 344.466 496.705 343.891 497.471 343.212L501.351 339.774C502.405 338.84 503.769 338.316 505.442 338.202C506.25 338.149 507.09 338.302 507.964 338.66C508.838 339.019 509.62 339.588 510.309 340.366C511.508 341.719 512.046 343.231 511.922 344.901C512.748 345.302 513.988 345.882 515.643 346.639ZM504.686 348.17L506.986 346.133C507.333 345.825 507.563 345.386 507.677 344.815C507.791 344.243 507.615 343.694 507.148 343.167C506.681 342.641 506.157 342.399 505.576 342.443C504.985 342.476 504.504 342.656 504.132 342.985L501.869 344.991L504.686 348.17ZM521.623 333.886C522.311 334.578 522.647 335.27 522.634 335.96C522.62 336.627 522.403 337.17 521.983 337.587L517.945 341.594C518.261 341.912 518.713 341.992 519.302 341.836C519.891 341.68 520.373 341.416 520.748 341.044C521.406 340.39 521.855 339.809 522.095 339.301L522.215 339.047C522.363 338.652 522.528 338.364 522.71 338.183C523.073 337.823 523.639 337.768 524.408 338.02C524.86 338.18 525.193 338.368 525.407 338.584C526.41 339.595 525.702 341.3 523.283 343.701C522.443 344.535 521.553 345.137 520.612 345.507C519.672 345.854 518.783 345.97 517.946 345.853C516.318 345.643 514.94 344.971 513.813 343.835C512.393 342.404 511.72 340.807 511.795 339.042C511.869 337.255 512.599 335.673 513.985 334.298C515.563 332.732 517.274 332.138 519.117 332.519C520.089 332.726 520.924 333.182 521.623 333.886ZM518.519 337.947C518.951 337.519 518.986 337.123 518.625 336.76C518.366 336.498 518.056 336.39 517.693 336.434C517.342 336.466 516.98 336.668 516.605 337.04C516.242 337.401 516.03 337.915 515.971 338.582C515.901 339.238 516.035 339.737 516.373 340.077L518.519 337.947ZM526.223 331.124C526.719 331.577 527.26 331.768 527.845 331.696C528.419 331.614 528.873 331.389 529.208 331.023C529.553 330.645 529.765 330.2 529.844 329.687C529.922 329.151 530.053 328.783 530.236 328.582C530.56 328.227 531.267 328.082 532.357 328.147C532.948 328.188 533.379 328.333 533.651 328.581C534.1 328.991 534.222 329.699 534.018 330.705C533.875 331.81 533.356 332.852 532.46 333.833C531.456 334.931 530.095 335.627 528.375 335.919C527.555 336.058 526.691 335.995 525.784 335.73C524.866 335.454 524.029 334.971 523.273 334.28C522.505 333.579 521.955 332.794 521.621 331.926C521.276 331.046 521.135 330.192 521.2 329.362C521.316 327.67 521.882 326.268 522.896 325.158C523.306 324.709 523.771 324.331 524.289 324.025C524.796 323.708 525.2 323.503 525.502 323.41L525.938 323.288C526.274 323.205 526.537 323.142 526.728 323.1C527.245 323.009 527.657 323.103 527.964 323.384C528.259 323.654 528.482 324.085 528.634 324.679C528.895 325.698 528.847 326.402 528.491 326.792C528.286 327.016 527.864 327.216 527.227 327.392C526.832 327.421 526.451 327.637 526.084 328.038C525.728 328.428 525.535 328.924 525.505 329.525C525.476 330.127 525.715 330.66 526.223 331.124ZM531.464 325.357C529.99 324.127 529.205 322.596 529.108 320.765C529.011 318.933 529.516 317.354 530.623 316.027C531.73 314.701 533.188 313.927 534.997 313.707C536.794 313.477 538.43 313.977 539.904 315.208C540.923 316.058 541.612 317.081 541.97 318.276C542.315 319.46 542.36 320.592 542.105 321.671C541.849 322.728 541.382 323.662 540.705 324.473C540.029 325.284 539.176 325.906 538.147 326.339C537.106 326.763 535.978 326.915 534.764 326.798C533.547 326.658 532.447 326.177 531.464 325.357ZM536.005 322.613C536.628 322.466 537.108 322.19 537.447 321.785C537.785 321.379 537.97 320.846 538.001 320.184C538.032 319.523 537.747 318.941 537.145 318.438C536.543 317.936 535.936 317.752 535.323 317.887C534.711 318.022 534.22 318.31 533.851 318.752C533.482 319.195 533.292 319.734 533.281 320.371C533.27 321.008 533.566 321.578 534.168 322.08C534.757 322.573 535.37 322.75 536.005 322.613ZM539.41 308.171C538.951 306.889 539.037 305.825 539.67 304.979C540.647 303.672 541.933 303.115 543.527 303.308C543.44 303.024 543.366 302.709 543.305 302.363C543.24 301.995 543.249 301.502 543.332 300.885C543.401 300.257 543.609 299.713 543.954 299.252C544.72 298.227 545.76 297.665 547.071 297.568C548.37 297.46 549.93 298.087 551.749 299.448L555.112 301.964C555.407 302.184 555.622 302.364 555.756 302.505C555.888 302.623 556.011 302.806 556.127 303.052C556.348 303.477 556.152 304.1 555.539 304.92C554.935 305.727 554.387 306.086 553.894 305.997C553.634 305.943 553.425 305.876 553.265 305.796C553.101 305.694 552.872 305.533 552.578 305.312L549.214 302.797C548.1 301.963 547.245 301.943 546.651 302.738C546.316 303.186 546.233 303.604 546.403 303.991C546.583 304.365 546.942 304.753 547.48 305.156L550.843 307.672C551.151 307.902 551.365 308.082 551.487 308.213C551.618 308.331 551.742 308.514 551.857 308.76C552.069 309.198 551.868 309.827 551.255 310.647C550.651 311.454 550.103 311.813 549.61 311.724C549.351 311.67 549.141 311.603 548.981 311.524C548.818 311.421 548.589 311.26 548.294 311.04L544.931 308.524C543.816 307.69 542.961 307.671 542.367 308.465C541.792 309.234 542.062 310.035 543.177 310.869L546.579 313.413C546.873 313.634 547.088 313.814 547.223 313.955C547.354 314.073 547.477 314.255 547.593 314.501C547.782 314.943 547.575 315.567 546.971 316.374C546.368 317.181 545.826 317.545 545.346 317.466C545.086 317.412 544.877 317.345 544.716 317.265C544.566 317.173 544.337 317.011 544.029 316.781L537.264 311.721C536.97 311.501 536.757 311.332 536.625 311.213C536.491 311.073 536.372 310.884 536.269 310.647C536.067 310.197 536.234 309.612 536.771 308.895C537.308 308.177 537.773 307.796 538.166 307.751C538.56 307.705 538.975 307.846 539.41 308.171ZM558.292 287.194C559.099 287.743 559.562 288.357 559.68 289.037C559.794 289.695 559.684 290.269 559.352 290.759L556.155 295.463C556.525 295.715 556.985 295.708 557.533 295.442C558.081 295.176 558.504 294.825 558.8 294.388C559.322 293.621 559.652 292.965 559.79 292.42L559.859 292.148C559.929 291.731 560.036 291.417 560.18 291.205C560.468 290.782 561.013 290.62 561.815 290.72C562.289 290.791 562.652 290.912 562.903 291.083C564.081 291.883 563.713 293.693 561.797 296.512C561.132 297.491 560.373 298.252 559.52 298.795C558.664 299.315 557.814 299.598 556.97 299.644C555.331 299.749 553.851 299.352 552.527 298.453C550.86 297.32 549.894 295.88 549.63 294.134C549.361 292.365 549.776 290.674 550.873 289.059C552.123 287.22 553.688 286.311 555.57 286.332C556.564 286.349 557.471 286.637 558.292 287.194ZM556.021 291.774C556.363 291.271 556.322 290.876 555.898 290.588C555.594 290.381 555.268 290.334 554.921 290.446C554.583 290.546 554.266 290.813 553.969 291.25C553.681 291.674 553.572 292.218 553.641 292.885C553.698 293.542 553.924 294.006 554.321 294.275L556.021 291.774ZM558.748 277.547C559.609 276.199 560.843 275.411 562.45 275.185C564.052 274.936 565.595 275.286 567.078 276.233L570.637 278.508C570.947 278.706 571.175 278.87 571.319 279.001C571.459 279.109 571.593 279.27 571.721 279.485C571.965 279.907 571.811 280.549 571.259 281.412C570.648 282.369 570.045 282.762 569.451 282.592C569.171 282.526 568.801 282.347 568.343 282.054L564.783 279.78C564.23 279.427 563.695 279.313 563.179 279.438C562.67 279.55 562.244 279.876 561.899 280.415C561.563 280.941 561.449 281.476 561.558 282.02C561.675 282.55 561.996 282.983 562.522 283.319L566.101 285.606C566.411 285.805 566.639 285.969 566.783 286.099C566.923 286.207 567.053 286.376 567.173 286.604C567.425 287.012 567.275 287.647 566.724 288.51C566.181 289.36 565.667 289.763 565.183 289.719C564.92 289.684 564.706 289.633 564.54 289.565C564.37 289.475 564.13 289.331 563.82 289.133L556.66 284.558C556.364 284.369 556.146 284.22 556.006 284.111C555.861 283.981 555.729 283.802 555.609 283.573C555.393 283.169 555.556 282.542 556.099 281.693C556.624 280.871 557.102 280.464 557.533 280.473C557.848 280.485 558.168 280.594 558.491 280.801C558.432 280.687 558.374 280.479 558.32 280.178C558.265 279.878 558.24 279.605 558.244 279.361C558.227 278.704 558.395 278.1 558.748 277.547ZM562.512 261.484C562.373 261.251 562.341 260.979 562.416 260.669C562.492 260.359 562.658 259.992 562.915 259.568C563.18 259.13 563.433 258.806 563.672 258.596C563.912 258.385 564.163 258.295 564.427 258.323C564.698 258.338 564.92 258.388 565.093 258.474C565.26 258.538 565.501 258.665 565.816 258.856L578.071 266.279C578.386 266.47 578.617 266.628 578.764 266.755C578.907 266.86 579.04 267.025 579.166 267.251C579.411 267.68 579.243 268.373 578.663 269.331C578.091 270.276 577.437 270.599 576.7 270.303C577.008 271.275 576.852 272.275 576.23 273.301C575.484 274.533 574.271 275.332 572.59 275.698C570.895 276.056 569.336 275.804 567.913 274.942C566.476 274.071 565.524 272.802 565.056 271.135C564.597 269.454 564.736 268.004 565.474 266.786C566.087 265.773 566.906 265.194 567.93 265.047L563.619 262.436C563.304 262.245 563.076 262.097 562.934 261.992C562.786 261.866 562.645 261.696 562.512 261.484ZM571.644 271.562C572.229 271.43 572.675 271.11 572.982 270.604C573.288 270.098 573.356 269.568 573.186 269.016C573.024 268.45 572.724 268.035 572.286 267.769C571.834 267.496 571.317 267.407 570.735 267.504C570.161 267.586 569.708 267.901 569.377 268.449C569.045 268.996 568.972 269.55 569.156 270.111C569.326 270.663 569.638 271.076 570.089 271.349C570.541 271.623 571.059 271.694 571.644 271.562ZM575.185 252.96C574.458 252.428 574.387 251.656 574.972 250.646C575.285 250.106 575.559 249.728 575.795 249.513C576.03 249.299 576.28 249.203 576.544 249.226C576.815 249.236 577.038 249.282 577.213 249.364C577.381 249.425 577.624 249.547 577.943 249.732L585.211 253.943C585.53 254.127 585.764 254.281 585.914 254.405C586.058 254.507 586.206 254.667 586.358 254.884C586.605 255.286 586.508 255.868 586.067 256.63C585.634 257.377 585.251 257.831 584.919 257.989C584.581 258.126 584.22 258.111 583.836 257.944C584.273 258.882 584.142 259.952 583.445 261.157C582.755 262.348 581.566 263.138 579.879 263.529C578.192 263.92 576.628 263.698 575.188 262.864C573.735 262.022 572.765 260.776 572.278 259.126C571.786 257.454 571.897 256.002 572.611 254.77C572.884 254.299 573.215 253.918 573.606 253.626C573.997 253.335 574.312 253.157 574.553 253.093C574.78 253.021 574.99 252.977 575.185 252.96ZM577.315 259.242C577.771 259.507 578.291 259.567 578.873 259.424C579.442 259.273 579.875 258.941 580.171 258.428C580.468 257.916 580.526 257.386 580.345 256.837C580.171 256.274 579.863 255.865 579.42 255.608C578.963 255.343 578.445 255.265 577.865 255.372C577.292 255.466 576.846 255.79 576.525 256.344C576.212 256.884 576.149 257.439 576.337 258.01C576.532 258.567 576.858 258.977 577.315 259.242ZM576.607 237.158C576.462 236.928 576.422 236.657 576.488 236.345C576.555 236.034 576.71 235.662 576.954 235.23C577.207 234.785 577.45 234.454 577.683 234.236C577.916 234.019 578.165 233.921 578.429 233.942C578.701 233.949 578.924 233.993 579.099 234.073C579.268 234.132 579.513 234.252 579.833 234.434L592.3 241.496C592.62 241.677 592.856 241.829 593.007 241.951C593.152 242.052 593.291 242.213 593.423 242.435C593.68 242.857 593.533 243.555 592.981 244.529C592.437 245.49 591.792 245.833 591.047 245.558C591.384 246.521 591.257 247.525 590.665 248.569C589.956 249.822 588.766 250.656 587.097 251.071C585.413 251.478 583.848 251.272 582.4 250.451C580.938 249.623 579.949 248.383 579.433 246.73C578.924 245.062 579.021 243.609 579.723 242.37C580.306 241.34 581.108 240.737 582.127 240.56L577.742 238.076C577.422 237.895 577.189 237.754 577.044 237.653C576.893 237.531 576.747 237.366 576.607 237.158ZM586.03 246.964C586.611 246.815 587.048 246.483 587.339 245.968C587.631 245.452 587.684 244.921 587.497 244.374C587.318 243.813 587.006 243.407 586.561 243.154C586.101 242.894 585.582 242.821 585.003 242.934C584.432 243.033 583.989 243.362 583.673 243.918C583.358 244.475 583.3 245.031 583.501 245.586C583.687 246.133 584.01 246.537 584.47 246.797C584.929 247.057 585.449 247.113 586.03 246.964ZM589.407 238.08C587.735 237.136 586.687 235.771 586.262 233.987C585.837 232.203 586.049 230.559 586.899 229.054C587.75 227.55 589.045 226.527 590.785 225.985C592.511 225.435 594.209 225.632 595.881 226.577C597.037 227.23 597.898 228.112 598.465 229.223C599.018 230.326 599.267 231.431 599.21 232.539C599.148 233.625 598.857 234.627 598.337 235.547C597.818 236.466 597.091 237.231 596.157 237.843C595.209 238.447 594.127 238.8 592.911 238.903C591.689 238.984 590.521 238.71 589.407 238.08ZM593.379 234.564C593.965 234.307 594.388 233.949 594.648 233.489C594.908 233.029 594.994 232.471 594.905 231.815C594.817 231.158 594.431 230.637 593.749 230.252C593.066 229.866 592.436 229.794 591.857 230.037C591.279 230.28 590.848 230.652 590.565 231.154C590.281 231.655 590.192 232.22 590.296 232.849C590.4 233.477 590.793 233.985 591.476 234.37C592.145 234.748 592.779 234.813 593.379 234.564Z" fill="#2C2C2C"/>
<g clip-path="url(#clip0_553_50)">
<path d="M648.396 123.086C648.416 123.007 648.458 122.935 648.519 122.88C649.134 120.956 649.533 118.97 649.708 116.957C649.756 115.602 649.734 114.229 649.728 113.004C648.282 98.413 631.319 92.0797 622.918 88.7574C612.835 84.7624 584.518 96.3667 594.088 128.953C602.942 159.103 593.294 169.738 591.805 171.169L591.764 171.552C591.963 171.596 592.155 171.67 592.331 171.772L643.93 202.391C644.169 202.534 644.371 202.729 644.521 202.963L644.696 202.845C644.696 202.845 686.866 167.856 704.59 147.687C705.426 146.73 706.189 145.776 706.89 144.831L706.812 144.785C698.968 154.084 688.218 158.17 680.057 153.327C672.317 148.734 677.158 139.049 677.581 136.102C678.178 131.921 683.498 125.66 688.257 117.542C679.865 129.725 674.073 140.916 662.427 141.063C657.683 141.121 652.393 138.377 650.044 134.203C648.3 130.807 647.739 126.926 648.448 123.175C648.448 123.175 648.381 123.112 648.396 123.086Z" fill="#FEFEFC"/>
<path d="M663.942 25.7968L622.875 88.7315C631.255 92.0881 648.239 98.3871 649.685 112.978C649.57 110.41 649.323 108.415 649.323 108.415C651.773 104.287 654.054 100.756 656.236 97.7256L691.247 43.6047C693.516 40.1788 694.417 36.0265 693.772 31.9685C693.127 27.9105 690.983 24.2421 687.764 21.6884C687.492 21.4805 687.22 21.2846 686.95 21.1007C685.47 20.1022 683.844 19.3379 682.131 18.8346C678.754 17.8891 675.162 18.0556 671.886 19.3094C668.61 20.5632 665.825 22.8378 663.942 25.7968Z" fill="#FEFEFC"/>
<path d="M578.712 181.632C577.986 182.821 577.365 184.071 576.856 185.368C575.651 188.552 575.613 192.059 576.749 195.268C577.884 198.477 580.12 201.18 583.059 202.898L620.331 225.015C623.096 226.668 626.334 227.351 629.531 226.954C632.729 226.557 635.702 225.104 637.979 222.825C639.659 221.12 641.071 219.17 642.167 217.042C644.263 212.929 645.156 208.307 644.741 203.709C644.716 203.432 644.623 203.165 644.47 202.932C644.319 202.698 644.117 202.503 643.879 202.36L592.28 171.741C592.103 171.639 591.912 171.565 591.713 171.521C591.383 171.456 591.041 171.488 590.729 171.611C585.742 173.559 581.524 177.077 578.712 181.632Z" fill="#FEFEFC"/>
<path d="M656.236 97.7258C653.935 101.291 651.63 104.854 649.323 108.415C649.323 108.415 649.57 110.41 649.685 112.978C649.816 114.31 649.818 115.651 649.693 116.983C649.735 119.02 649.329 121.042 648.504 122.905C648.467 122.977 648.426 123.046 648.381 123.112C648.381 123.112 648.381 123.112 648.387 123.22C647.677 126.971 648.239 130.852 649.982 134.248C652.314 138.411 657.648 141.122 662.365 141.108C674.011 140.96 679.803 129.769 688.196 117.586L688.231 117.526C688.987 116.253 700.725 94.8461 687.859 87.2117C676.609 80.5007 668.237 81.0679 656.236 97.7258Z" fill="#FEFEFC"/>
<path d="M688.177 117.54C683.412 125.666 678.097 131.92 677.5 136.1C677.077 139.047 672.236 148.733 679.976 153.326C688.138 158.169 698.888 154.083 706.732 144.783L706.809 144.829C711.629 138.236 712.988 132.007 712.654 126.612C711.9 114.303 694.489 106.902 688.212 117.48L688.177 117.54Z" fill="#FEFEFC"/>
<path d="M644.461 202.927C644.614 203.159 644.708 203.426 644.733 203.704C645.151 208.303 644.261 212.926 642.167 217.042C641.071 219.17 639.659 221.12 637.979 222.825C635.702 225.104 632.729 226.557 629.531 226.954C626.334 227.351 623.096 226.668 620.33 225.015L583.059 202.898C580.122 201.182 577.887 198.483 576.75 195.278C575.612 192.072 575.647 188.568 576.846 185.385C577.355 184.088 577.976 182.838 578.702 181.649C581.517 177.094 585.738 173.579 590.727 171.634C591.04 171.51 591.381 171.479 591.711 171.543C591.91 171.587 592.101 171.661 592.278 171.763L643.877 202.382C644.11 202.518 644.309 202.704 644.461 202.927Z" stroke="#2C2C2C" stroke-width="3" stroke-miterlimit="10"/>
<path d="M591.566 171.317C591.566 171.317 591.607 171.248 591.762 171.143C593.256 169.704 602.882 159.067 594.046 128.927C584.475 96.3408 612.792 84.7366 622.875 88.7315C631.255 92.0882 648.239 98.3872 649.685 112.978C649.816 114.31 649.818 115.651 649.693 116.983C649.518 118.995 649.119 120.981 648.504 122.905C648.467 122.977 648.426 123.045 648.381 123.112C641.274 144.476 609.777 118.367 609.777 118.367C609.777 118.367 623.737 132.662 630.309 153.097C632.081 158.523 633.169 164.149 633.546 169.844" stroke="#2C2C2C" stroke-width="3" stroke-miterlimit="10"/>
<path d="M651.041 151.295C644.148 149.355 636.786 149.987 630.324 153.072" stroke="#2C2C2C" stroke-width="3" stroke-miterlimit="10"/>
<path d="M688.177 117.54C683.412 125.667 678.097 131.92 677.5 136.1C677.077 139.047 672.236 148.733 679.976 153.326C688.137 158.169 698.888 154.083 706.732 144.784" stroke="#2C2C2C" stroke-width="3" stroke-miterlimit="10"/>
<path d="M644.636 202.809C644.636 202.809 686.806 167.82 704.53 147.651C705.366 146.694 706.129 145.74 706.83 144.795C711.629 138.236 712.988 132.007 712.654 126.612C711.9 114.303 694.489 106.902 688.212 117.48" stroke="#2C2C2C" stroke-width="3" stroke-miterlimit="10"/>
<path d="M688.177 117.54L688.212 117.48C688.968 116.207 700.706 94.8001 687.84 87.1657C676.609 80.5009 668.211 81.0528 656.236 97.726C654.064 100.74 651.773 104.287 649.323 108.415C649.323 108.415 649.57 110.41 649.685 112.979C649.751 114.18 649.748 115.597 649.665 116.932C649.707 118.969 649.301 120.991 648.476 122.854C648.416 122.909 648.373 122.981 648.354 123.061C648.354 123.061 648.354 123.061 648.359 123.169C647.649 126.92 648.211 130.801 649.955 134.197C652.287 138.36 657.62 141.071 662.338 141.057C673.992 140.914 679.784 129.723 688.177 117.54Z" stroke="#2C2C2C" stroke-width="3" stroke-miterlimit="10"/>
<path d="M622.875 88.7317L663.942 25.7971C665.819 22.8293 668.602 20.5452 671.879 19.2832C675.156 18.0211 678.752 17.8483 682.135 18.7903C683.848 19.2935 685.473 20.0579 686.953 21.0564C687.245 21.2299 687.517 21.4258 687.767 21.6441C690.997 24.1997 693.149 27.8769 693.793 31.9453C694.438 36.0136 693.529 40.1757 691.247 43.605L656.236 97.7259C653.935 101.291 651.63 104.854 649.323 108.415" stroke="#2C2C2C" stroke-width="3" stroke-miterlimit="10"/>
</g>
<defs>
<clipPath id="clip0_553_50">
<rect width="120.66" height="212.39" fill="white" transform="matrix(-0.859985 -0.51032 -0.51032 0.859985 758.155 61.5752)"/>
</clipPath>
</defs>
</svg>
