<svg width="559" height="559" viewBox="0 0 559 559" fill="none" xmlns="http://www.w3.org/2000/svg">
<path d="M301.732 214.076L214.27 301.538C210.433 305.375 210.433 311.597 214.27 315.435L242.085 343.249C245.922 347.086 252.144 347.086 255.981 343.249L343.443 255.787C347.281 251.949 347.281 245.728 343.443 241.89L315.629 214.076C311.792 210.238 305.57 210.238 301.732 214.076Z" fill="#2C2C2C" stroke="#2C2C2C" stroke-width="10.836" stroke-miterlimit="10"/>
<path d="M339.634 238.12L320.949 219.556C324.91 216.313 328.491 212.631 331.621 208.58C334.58 204.689 337.114 200.493 339.18 196.063L341.569 193.04C343.073 191.471 344.876 190.219 346.871 189.356C348.866 188.494 351.013 188.038 353.186 188.016C355.36 187.995 357.516 188.407 359.528 189.229C361.54 190.052 363.367 191.267 364.903 192.805C366.439 194.343 367.652 196.172 368.472 198.185C369.292 200.198 369.701 202.355 369.676 204.528C369.652 206.701 369.193 208.848 368.328 210.842C367.463 212.835 366.208 214.637 364.638 216.139C363.613 217.159 362.453 218.034 361.191 218.739C352.249 223.014 344.754 229.815 339.634 238.301V238.12Z" fill="#2C2C2C" stroke="#2C2C2C" stroke-width="10.836" stroke-miterlimit="10"/>
<path d="M237.894 339.857L219.209 321.172C215.984 325.15 212.3 328.733 208.233 331.845C204.344 334.821 200.136 337.356 195.686 339.403L192.663 341.792C191.092 343.295 189.838 345.096 188.972 347.089C188.107 349.083 187.649 351.23 187.624 353.403C187.599 355.576 188.009 357.733 188.828 359.746C189.648 361.759 190.861 363.588 192.397 365.126C193.933 366.664 195.761 367.88 197.773 368.702C199.785 369.524 201.94 369.936 204.114 369.915C206.287 369.893 208.434 369.437 210.429 368.575C212.424 367.712 214.227 366.46 215.732 364.891C216.763 363.858 217.648 362.688 218.362 361.414C220.364 357.115 222.971 353.124 226.102 349.562C229.516 345.746 233.492 342.474 237.894 339.857Z" fill="#2C2C2C" stroke="#2C2C2C" stroke-width="10.836" stroke-miterlimit="10"/>
<path d="M312.332 246.766C311.103 254.051 307.88 260.854 303.019 266.418C288.416 282.564 266.345 276.093 253.404 291.936C248.632 298.055 245.97 305.554 245.815 313.312" stroke="#FEFEFC" stroke-width="8.136" stroke-miterlimit="10" stroke-linecap="round"/>
<path d="M270.668 100.219C257.97 101.005 242.066 116.455 229.731 124.558C225.216 127.508 219.999 129.208 214.613 129.486C167.508 132.177 143.471 139.312 137.303 187.083C136.366 202.835 120.916 211.059 109.094 223.365C92.6465 241.989 90.9533 264.182 108.248 294.658C111.081 299.61 112.484 305.252 112.299 310.955C112.027 319.179 110.515 329.095 110.122 334.447C107.885 383.095 134.008 386.572 158.498 402.445C161.594 404.459 164.307 407.009 166.51 409.973C177.334 424.486 186.253 445.983 203.426 452.302C231.333 467.419 254.523 450.216 274.357 449.097C276.626 448.971 278.902 449.133 281.13 449.581C310.578 455.023 330.503 467.026 354.57 450.881C355.356 450.337 356.172 449.853 356.989 449.399C370.624 441.72 377.488 424.305 387.526 411.092C390.082 407.741 393.291 404.944 396.959 402.868C442.311 376.897 450.444 369.61 443.158 314.311C442.667 311.307 442.667 308.244 443.158 305.24C444.434 299.795 446.777 294.657 450.051 290.123C486.333 227.265 424.019 223.093 417.065 182.699C416.214 177.252 414.888 171.891 413.104 166.675C398.894 127.158 367.994 133.749 336.006 128.851C314.811 120.113 298.938 92.9624 270.668 100.219ZM302.294 111.889C311.364 118.299 320.435 128.095 331.108 132.449C333.131 133.256 335.242 133.824 337.397 134.142C368.871 139.221 390.217 133.961 405.697 161.353C406.522 162.749 407.221 164.216 407.783 165.737C414.072 183.878 410.806 198.149 428.947 212.994C482.584 261.037 439.378 279.511 438.018 309.534C437.05 325.981 444.911 348.567 436.959 363.412C425.561 389.867 384.472 392.83 374.343 420.556C373.866 422.013 373.249 423.42 372.499 424.758C368.573 431.417 363.447 437.291 357.382 442.083C326.3 466.27 306.497 445.106 277.411 443.292C255.581 442.536 233.812 460.707 210.411 449.339C192.875 444.229 182.444 424.365 172.889 409.248C171.144 406.492 168.982 404.023 166.48 401.931C143.652 383.095 122.035 384.546 116.925 354.13C113.418 342.036 117.439 325.709 118.346 313.494C118.71 308.468 117.86 303.429 115.867 298.8C98.5422 258.437 89.8951 243.682 130.984 210.938C141.294 202.321 142.05 189.774 144.741 175.352C145.068 173.595 145.564 171.874 146.222 170.212C161.34 131.27 184.258 139.403 215.551 135.382C218.316 135.033 221.028 134.342 223.623 133.326C252.77 121.564 259.905 96.0463 294.887 108.019C297.522 108.963 300.014 110.266 302.294 111.889Z" stroke="#2C2C2C" stroke-width="8.136" stroke-miterlimit="10"/>
</svg>
