<svg xmlns="http://www.w3.org/2000/svg" xmlns:xlink="http://www.w3.org/1999/xlink" viewBox="0 0 186.13 284.27"><defs><style>.cls-1,.cls-3,.cls-6{fill:#2c2c2c;}.cls-1,.cls-10,.cls-11,.cls-12,.cls-13,.cls-14,.cls-16,.cls-17,.cls-18,.cls-19,.cls-20,.cls-21,.cls-22,.cls-23,.cls-24,.cls-3,.cls-4{stroke:#2c2c2c;}.cls-1,.cls-10,.cls-11,.cls-12,.cls-13,.cls-16,.cls-17,.cls-18,.cls-19{stroke-miterlimit:10;}.cls-1,.cls-17{stroke-width:1.42px;}.cls-2,.cls-23,.cls-4{fill:#fefefc;}.cls-14,.cls-20,.cls-21,.cls-22,.cls-23,.cls-24,.cls-3,.cls-4{stroke-linecap:round;stroke-linejoin:round;}.cls-21,.cls-22,.cls-3,.cls-4{stroke-width:2px;}.cls-21,.cls-5{fill:#79bce8;}.cls-7{fill:#f6e0c3;}.cls-8{fill:#1d1d1b;}.cls-9{fill:#fff;}.cls-10,.cls-11,.cls-12,.cls-13,.cls-14,.cls-17,.cls-22,.cls-24{fill:none;}.cls-10,.cls-14,.cls-20{stroke-width:2.85px;}.cls-11,.cls-18{stroke-width:1.07px;}.cls-12{stroke-width:1.13px;}.cls-13{stroke-width:1.9px;}.cls-15{clip-path:url(#clip-path);}.cls-16{fill:#e95b6f;stroke-width:1.85px;}.cls-18,.cls-19,.cls-20{fill:#fdcb63;}.cls-19{stroke-width:0.75px;}</style><clipPath id="clip-path"><path class="cls-1" d="M100.91,135.88c-.29,6.51-8.92,11.41-19.28,11s-18.51-6.1-18.23-12.6v-.1a4.3,4.3,0,0,1,7.32-2.76c2.44,2.41,6.61,4.1,11.4,4.31s9.09-1.1,11.73-3.28a4.3,4.3,0,0,1,7,3.39Z"/></clipPath></defs><title>thumb-up_1</title><g id="Capa_2" data-name="Capa 2"><g id="Capa_1-2" data-name="Capa 1"><path class="cls-2" d="M186.12,166.67a14,14,0,0,0-12-13.23c-1-.15-2-.28-3.07-.38,0-.54,0-1.08,0-1.62a24.91,24.91,0,0,0-4.88-14.16,8,8,0,0,0-1.33-1.39,14.56,14.56,0,0,0-9.19-3.45,11.64,11.64,0,0,0-7.27,2.45,10.51,10.51,0,0,0-1,.9A10.84,10.84,0,0,0,145,147.24a15.34,15.34,0,0,1,1,4.95,14.75,14.75,0,0,1-.27,3.38,11.58,11.58,0,0,1-.65,1.14,10.59,10.59,0,0,0-4.38,1.18A10.32,10.32,0,0,0,138,160c-.71-.1-1.41-.21-2.1-.37a25.69,25.69,0,0,1-9.83-4.53,17.24,17.24,0,0,1-3.48-3.64c-.41-.54-.86-1.11-1.35-1.7a30.38,30.38,0,0,0,5.39-22.8l0-.25a45.68,45.68,0,0,0-5.13-14.34,87,87,0,0,0,.52-11.15,88.59,88.59,0,0,0-1.16-12.89,25.08,25.08,0,0,0,6.08-2.17A26.09,26.09,0,0,0,138,75.23a8,8,0,0,0,.92-4.28,60.38,60.38,0,0,0,16-11.37,16.94,16.94,0,0,0-13.17-29,8,8,0,0,0-2.46.58L109,43.73l-7.48-19.28a40.53,40.53,0,0,0-6-10.45l-1.3-2.07a8,8,0,0,0-3.62-3.11c-.5-.44-1-.88-1.56-1.31l-1.3-1A35.21,35.21,0,0,0,54.06,2.58a67.31,67.31,0,0,0-11.55,6C26.94,18.74,19.11,33,15.28,43.2a9.65,9.65,0,0,0,13,12.17,74.71,74.71,0,0,0,10.82-6l-.53,4.23a6.11,6.11,0,0,0-.06,1l-2.11,17h0l-.26,2.16L10.06,84.59a9,9,0,0,0-.83.4C1.17,89.47-2.21,99.12,1.51,107a16.5,16.5,0,0,0,11.65,8.85,21.4,21.4,0,0,0,3.17,6.48,21.9,21.9,0,0,0,7.54,6.55,7.26,7.26,0,0,1,.77,2.67,9,9,0,0,1-1.56,4.87,8,8,0,0,0,6.61,12.5H30c.48,0,.95-.07,1.43-.1-.76.38-1.51.77-2.23,1.17a78.93,78.93,0,0,0-14.93,10.84,25.36,25.36,0,0,0-6.94,26.88l.08.21a32.87,32.87,0,0,0,11.37,15.3,14.12,14.12,0,0,0-4.66,9.47,8.42,8.42,0,0,0,0,.87,16.93,16.93,0,0,0,3.06,9c.27.37.53.73.81,1.06a16.34,16.34,0,0,0,12.66,5.79h0c.61,0,1.23,0,1.84,0-.6,2.59-1.18,5.19-1.72,7.8a50,50,0,0,0-9.25,1.6,52.1,52.1,0,0,0-9.4,3.57,20.85,20.85,0,0,0-11.61,19v.2c0,.47,0,.94.08,1.39a21.8,21.8,0,0,0,16.74,19,82.63,82.63,0,0,0,19.52,2.36h0a83.43,83.43,0,0,0,17.42-1.85,28.46,28.46,0,0,0,18.61-13.18l.07-.12a31.28,31.28,0,0,0,4.17-16.24A98.44,98.44,0,0,0,81,242.07l0-.16c.15,2.49.43,5,.79,7.45-.53,7.46.69,13.84,3.68,19l.1.17a28.46,28.46,0,0,0,18.57,13.12,84.1,84.1,0,0,0,17.42,1.84,81.24,81.24,0,0,0,19.52-2.36,21.78,21.78,0,0,0,16.74-19c0-.45.07-.92.09-1.48v-.13A24.07,24.07,0,0,0,147,241.87c-5.19-3.23-10.16-3.37-15-3.5l-1.14,0c-1,0-1.85,0-2.68.11q-.14-4.76-.47-9.47a217.91,217.91,0,0,0-3.43-25.67v-.06s0,0,0-.08l-.06-.2c0-.15-.06-.3-.1-.44a36.32,36.32,0,0,1-1.35-8.77A49.86,49.86,0,0,0,136,195.56a48.9,48.9,0,0,0,6.73-.47,11.46,11.46,0,0,0,3.88,1.2,12.4,12.4,0,0,0,1.36.08,11.35,11.35,0,0,0,3-.42,32.43,32.43,0,0,0,7.18,2.13,32.79,32.79,0,0,0,5.51.47h0a32.78,32.78,0,0,0,10.86-1.85l.09,0,.49-.2a1.21,1.21,0,0,0,.2-.09l.07,0,.2-.1a13.67,13.67,0,0,0,7.66-12.35,13.25,13.25,0,0,0,1.69-11,14.26,14.26,0,0,0,1.05-3.44A14.08,14.08,0,0,0,186.12,166.67Z"/><path class="cls-3" d="M47.42,204.73a98.93,98.93,0,0,0,69,0,43.82,43.82,0,0,1-.43-22.29,41.41,41.41,0,0,0,31.64,3.45,38.08,38.08,0,0,1-3.21-17.78,33.27,33.27,0,0,1-23.28-6.67c-5.41-4.2-5.16-7.22-10.07-9.64a23.31,23.31,0,0,0-9.65-2.36,47.53,47.53,0,0,1-23.14,6.64c-12.45.29-17.29-5.51-21-7.71-5.14,1.1-16.52,4.29-24.16,8.57a71.17,71.17,0,0,0-13.42,9.74,17.41,17.41,0,0,0-4.8,18.39l.06.16c3.31,9.38,11.35,13.48,13.18,14.35L41,188.87a9.33,9.33,0,0,1-1.6-8A8.91,8.91,0,0,1,43.14,176a21.05,21.05,0,0,1,4.6-1.39,22.18,22.18,0,0,1,3.11-.32,58.16,58.16,0,0,0-2.62,8.52A60,60,0,0,0,47.42,204.73Z"/><path class="cls-3" d="M37.35,245a43.33,43.33,0,0,0-13.71,1.45,42.76,42.76,0,0,0-7.93,3,12.79,12.79,0,0,0-7.18,11.63v.14c0,.31,0,.62.06.92a13.82,13.82,0,0,0,10.67,12,74.29,74.29,0,0,0,33.37.46A20.33,20.33,0,0,0,66,265.24a1,1,0,0,1,.08-.14,23.21,23.21,0,0,0,3-13.66A87.37,87.37,0,0,1,37.35,245Z"/><path class="cls-3" d="M120.39,247.62c6-.79,7.52-1.35,11.41-1.24,4.42.12,7.61.21,11,2.29,6.36,4,7.19,11.34,7.18,11.64v.13q0,.48-.06.93a13.82,13.82,0,0,1-10.67,12,74.29,74.29,0,0,1-33.37.46,20.37,20.37,0,0,1-13.36-9.37,1,1,0,0,0-.08-.14c-3.42-5.88-2.74-13.13-2.55-15.22,6.5.18,11.91,0,15.89-.21C110.22,248.63,114.56,248.39,120.39,247.62Z"/><path class="cls-4" d="M28.14,199.58a5.36,5.36,0,0,0,.4,4.61,5.21,5.21,0,0,0,3,2.17,54.07,54.07,0,0,0,8-5.06A53.84,53.84,0,0,0,47.43,194a4.09,4.09,0,0,0-2.35-6.78,3.71,3.71,0,0,0-.47,0A5.06,5.06,0,0,0,41,188.87Z"/><path class="cls-5" d="M151.13,43.66a9,9,0,0,1-1.8,10.25A52.21,52.21,0,0,1,114.93,69l-.06.51-1.49-.18,4.52-4.25a24.66,24.66,0,0,1,2-1.56,4.11,4.11,0,0,0-3.21-7.38L72.72,75.34c-14.57,6.37-28,12.63-42.57,19a.16.16,0,0,0-.09.21l-.4.21a19,19,0,0,0-6.61,6,19.28,19.28,0,0,0-2.78,7.41H16.59a8.78,8.78,0,0,1-7.86-4.67C6.91,99.73,8.6,94.5,13.1,92L43.5,79.45l61-25.19,37.9-15.65A9,9,0,0,1,151.13,43.66Z"/><path class="cls-6" d="M114.87,69.5l16.1,2a17.86,17.86,0,0,1-20.09,9c-.07-.28-.15-.56-.23-.83L94.4,73.94l-1.25.44-.3-.11-42.45,15c-.75,1.66-5,5-4.5,9.93a20.58,20.58,0,0,0,2.81,8.53.5.5,0,0,1-.62.72,69.2,69.2,0,0,1-9.42-4.66c-5.26-3.13-5.63-6.23-8.57-9.16a.18.18,0,0,1,0-.28c14.55-6.38,28-12.64,42.57-19l44-19.21a4.11,4.11,0,0,1,3.21,7.38,24.66,24.66,0,0,0-2,1.56l-4.52,4.25Z"/><path class="cls-7" d="M93.15,74.38,109.09,80a17.86,17.86,0,0,0,1.79.5,81.35,81.35,0,0,1,3.08,20.9,80.07,80.07,0,0,1-.81,12.79,37,37,0,0,1,5.54,14l0,.19a22.69,22.69,0,0,1-9.86,22.49A43.52,43.52,0,0,1,79,158.35c-.53,0-1.06-.14-1.59-.22A36.76,36.76,0,0,1,48.12,132c-.1-5.33-1-10.28-.83-15.75-1.14,1.16-3.95,4.18-7.59,5.64l-.74.27a19.3,19.3,0,0,1-8.64.78,13.84,13.84,0,0,1-10-14.66,19.28,19.28,0,0,1,2.78-7.41,19,19,0,0,1,6.61-6l.4-.21a.16.16,0,0,0,0,.07c2.94,2.93,3.31,6,8.57,9.16a69.2,69.2,0,0,0,9.42,4.66.5.5,0,0,0,.62-.72A20.58,20.58,0,0,1,45.9,99.2c-.48-4.92,3.75-8.27,4.5-9.93l42.45-15ZM104,105.3c.69-7.88-3.69-14.71-9.79-15.24-5.33-.47-10.21,4-11.81,10.46-1.52-4.49-4.85-7.72-9-8.08-6.1-.53-11.6,5.44-12.28,13.32S64.87,120.48,71,121c5.33.46,10.2-4,11.8-10.46,1.52,4.5,4.85,7.73,9,8.08C97.85,119.16,103.34,113.2,104,105.3Z"/><path class="cls-8" d="M110.65,79.64c.08.27.16.55.23.83a17.86,17.86,0,0,1-1.79-.5L93.15,74.38l1.25-.44Z"/><path class="cls-9" d="M94.23,90.06c6.1.53,10.48,7.36,9.79,15.24s-6.17,13.86-12.27,13.33c-4.13-.35-7.46-3.58-9-8.08h0a19.31,19.31,0,0,0,.48-2.87,17.5,17.5,0,0,0-.83-7.16C84,94.1,88.9,89.59,94.23,90.06Zm3.17,17.07c.38-4.37-1.94-8.13-5.18-8.42s-6.19,3-6.57,7.4,1.94,8.13,5.2,8.41S97,111.49,97.4,107.13Z"/><path class="cls-5" d="M102.26,48.53q1.13,2.86,2.23,5.73l-61,25.19.85-6.79,5.44-43.94A66.54,66.54,0,0,1,38.94,39.57,66.74,66.74,0,0,1,25,48.1,1.65,1.65,0,0,1,22.76,46c2.87-7.65,9.57-21.25,24.11-30.73A59.1,59.1,0,0,1,57,10a27,27,0,0,1,26,3c.35.25.69.51,1,.79a32.46,32.46,0,0,1,10,13.58Q98.17,37.95,102.26,48.53Z"/><path class="cls-6" d="M92.22,98.71c3.24.29,5.56,4.05,5.18,8.42s-3.31,7.68-6.55,7.39-5.58-4-5.2-8.41S89,98.43,92.22,98.71Z"/><path class="cls-9" d="M83.25,107.68a19.31,19.31,0,0,1-.48,2.87,17.54,17.54,0,0,1-.83-7.17,18.55,18.55,0,0,1,.48-2.86A17.5,17.5,0,0,1,83.25,107.68Z"/><path class="cls-9" d="M82.77,110.55h0C81.17,117,76.3,121.47,71,121c-6.1-.53-10.49-7.35-9.8-15.25s6.18-13.85,12.28-13.32c4.12.36,7.45,3.59,9,8.08a18.55,18.55,0,0,0-.48,2.86A17.54,17.54,0,0,0,82.77,110.55Zm-6.13-1.24c.38-4.37-1.94-8.14-5.18-8.42s-6.19,3-6.57,7.4,1.94,8.12,5.2,8.4S76.27,113.67,76.64,109.31Z"/><path class="cls-6" d="M71.46,100.89c3.24.28,5.56,4,5.18,8.42s-3.31,7.67-6.55,7.38-5.58-4-5.2-8.4S68.21,100.61,71.46,100.89Z"/><path class="cls-6" d="M48.12,132c0,.82,0,1.65,0,2.49-1.83,1-6.26,3.92-9.1,4.82a36.22,36.22,0,0,1-9.33,1.64,17.09,17.09,0,0,0,3-9.23c.07-4.3-2.53-7.37-2.31-8.78a19.3,19.3,0,0,0,8.64-.78l.74-.27a19.32,19.32,0,0,0,7-4.57c0,.88-.07,1.75-.09,2.63A37.72,37.72,0,0,0,48.12,132Z"/><path class="cls-8" d="M47.29,116.2c-.21,5.47.73,10.42.83,15.75a37.72,37.72,0,0,1-1.47-12c0-.88.06-1.75.09-2.63a19.32,19.32,0,0,1-7,4.57C43.34,120.38,46.15,117.36,47.29,116.2Z"/><path class="cls-10" d="M30.32,122.89a13.84,13.84,0,0,1-10-14.66,19.28,19.28,0,0,1,2.78-7.41,19,19,0,0,1,6.61-6"/><path class="cls-10" d="M52,88.94,93.15,74.38l1.25-.44,16.25,5.7c.08.27.16.55.23.83a81.35,81.35,0,0,1,3.08,20.9,80.07,80.07,0,0,1-.81,12.79,37,37,0,0,1,5.54,14l0,.19a22.69,22.69,0,0,1-9.86,22.49A43.52,43.52,0,0,1,79,158.35c-.53,0-1.06-.14-1.59-.22A36.76,36.76,0,0,1,48.12,132a37.72,37.72,0,0,1-1.47-12c0-.88.06-1.75.09-2.63a19.32,19.32,0,0,1-7,4.57"/><path class="cls-10" d="M104.49,54.26l37.9-15.65a8.94,8.94,0,0,1,6.94,15.3A52.21,52.21,0,0,1,114.93,69"/><path class="cls-10" d="M20.27,108.23H16.59a8.78,8.78,0,0,1-7.86-4.67C6.91,99.73,8.6,94.5,13.1,92L43.5,79.45"/><path class="cls-11" d="M39.7,121.84c3.64-1.46,6.45-4.48,7.59-5.64-.21,5.47.73,10.42.83,15.75,0,.82,0,1.65,0,2.49-1.83,1-6.26,3.92-9.1,4.82a36.22,36.22,0,0,1-9.33,1.64,17.09,17.09,0,0,0,3-9.23c.07-4.3-2.53-7.37-2.31-8.78"/><path class="cls-10" d="M30.32,122.89a19.3,19.3,0,0,0,8.64-.78l.74-.27"/><path class="cls-10" d="M114.87,69.5l16.1,2a17.86,17.86,0,0,1-20.09,9,17.86,17.86,0,0,1-1.79-.5L93.15,74.38l-.3-.11-42.45,15c-.75,1.66-5,5-4.5,9.93a20.58,20.58,0,0,0,2.81,8.53.5.5,0,0,1-.62.72,69.2,69.2,0,0,1-9.42-4.66c-5.26-3.13-5.63-6.23-8.57-9.16a.18.18,0,0,1,0-.28c14.55-6.38,28-12.64,42.57-19l44-19.21a4.11,4.11,0,0,1,3.21,7.38,24.66,24.66,0,0,0-2,1.56l-4.52,4.25Z"/><path class="cls-11" d="M28,112.58a9.17,9.17,0,0,1,1.73-3.92,7.11,7.11,0,0,1,4.19-2.61"/><line class="cls-11" x1="34.86" y1="113.02" x2="29.74" y2="108.66"/><path class="cls-12" d="M82.77,110.55C81.17,117,76.3,121.47,71,121c-6.1-.53-10.49-7.35-9.8-15.25s6.18-13.85,12.28-13.32c4.12.36,7.45,3.59,9,8.08a17.5,17.5,0,0,1,.83,7.16,19.31,19.31,0,0,1-.48,2.87"/><path class="cls-12" d="M82.42,100.52C84,94.1,88.9,89.59,94.23,90.06c6.1.53,10.48,7.36,9.79,15.24s-6.17,13.86-12.27,13.33c-4.13-.35-7.46-3.58-9-8.08h0"/><line class="cls-13" x1="84.8" y1="121.32" x2="89.13" y2="121.8"/><path class="cls-12" d="M76.64,109.31c-.37,4.36-3.31,7.67-6.55,7.38s-5.58-4-5.2-8.4,3.32-7.68,6.57-7.4S77,104.94,76.64,109.31Z"/><path class="cls-12" d="M97.4,107.13c-.37,4.36-3.31,7.68-6.55,7.39s-5.58-4-5.2-8.41,3.32-7.68,6.57-7.4S97.78,102.76,97.4,107.13Z"/><path class="cls-13" d="M57.84,97s2.47-12,18.87-10.4"/><path class="cls-13" d="M81.62,88.65S88.41,78.4,103,86.05"/><path class="cls-14" d="M49.79,28.72A66.54,66.54,0,0,1,38.94,39.57,66.74,66.74,0,0,1,25,48.1,1.65,1.65,0,0,1,22.76,46c2.87-7.65,9.57-21.25,24.11-30.73A59.1,59.1,0,0,1,57,10a27,27,0,0,1,26,3c.35.25.69.51,1,.79a32.46,32.46,0,0,1,10,13.58q4.11,10.58,8.2,21.16,1.13,2.86,2.23,5.73l-61,25.19.85-6.79,5.44-43.94"/><path class="cls-6" d="M100.91,135.88c-.29,6.51-8.92,11.41-19.28,11s-18.51-6.1-18.23-12.6v-.1a4.3,4.3,0,0,1,7.32-2.76c2.44,2.41,6.61,4.1,11.4,4.31s9.09-1.1,11.73-3.28a4.3,4.3,0,0,1,7,3.39Z"/><g class="cls-15"><ellipse class="cls-16" cx="74.47" cy="142.46" rx="4.91" ry="8.99" transform="matrix(0.29, -0.96, 0.96, 0.29, -83.4, 172.75)"/></g><path class="cls-17" d="M100.91,135.88c-.29,6.51-8.92,11.41-19.28,11s-18.51-6.1-18.23-12.6v-.1a4.3,4.3,0,0,1,7.32-2.76c2.44,2.41,6.61,4.1,11.4,4.31s9.09-1.1,11.73-3.28a4.3,4.3,0,0,1,7,3.39Z"/><path class="cls-18" d="M48.22,41.25l2.52.33a1.9,1.9,0,0,0,1.65-.6l4.33-4.8a.36.36,0,0,1,.61.17l1.17,6.36a1.88,1.88,0,0,0,1.08,1.38l5.9,2.64a.35.35,0,0,1,0,.63l-5.68,3.07a1.89,1.89,0,0,0-1,1.47l-.69,6.42a.35.35,0,0,1-.59.22l-4.68-4.46a2,2,0,0,0-1.7-.48l-4.68,1,.76-6Z"/><path class="cls-19" d="M92.42,24.15l-1.51.93a1.33,1.33,0,0,0-.63,1.06l-.22,4.51a.24.24,0,0,1-.4.17l-3.44-2.91a1.34,1.34,0,0,0-1.2-.27l-4.36,1.18a.24.24,0,0,1-.29-.33l1.71-4.17A1.32,1.32,0,0,0,82,23.09l-2.47-3.77a.25.25,0,0,1,.23-.38l4.5.34a1.31,1.31,0,0,0,1.12-.49l2.1-2.61,2.23,3.57Z"/><polygon class="cls-20" points="102.26 48.53 44.34 72.66 43.5 79.44 104.49 54.26 102.26 48.53"/><path class="cls-2" d="M81.57,164.24l2.67,5.42a3.67,3.67,0,0,0,2.76,2l6,.87a.41.41,0,0,1,.22.69l-4.34,4.22a3.67,3.67,0,0,0-1.05,3.24l1,6a.4.4,0,0,1-.59.42l-5.35-2.81a3.65,3.65,0,0,0-3.4,0l-5.36,2.81a.4.4,0,0,1-.58-.42l1-6a3.67,3.67,0,0,0-1-3.24l-4.33-4.22a.4.4,0,0,1,.22-.69l6-.87a3.64,3.64,0,0,0,2.75-2l2.68-5.42A.4.4,0,0,1,81.57,164.24Z"/><path class="cls-21" d="M47.42,204.73q-1.58,5.09-3.05,10.39c-2.88,10.35-5.18,20.34-7,29.89a91.62,91.62,0,0,0,15.86,4.66,92.6,92.6,0,0,0,15.86,1.77,88.48,88.48,0,0,0,4.23-11.57,88,88,0,0,0,3-16.07l13.5.64a78.82,78.82,0,0,0,0,24.64,56.91,56.91,0,0,0,30.43-1.71c.07-5.53-.08-11.48-.54-17.79a208.1,208.1,0,0,0-3.32-24.85,98.93,98.93,0,0,1-69,0Z"/><path class="cls-4" d="M48.31,192.62a13.93,13.93,0,0,1,5.78,8.92,14.24,14.24,0,0,1-3.69,11.73,27.45,27.45,0,0,1-19.74,8.12,8.4,8.4,0,0,1-6.52-2.9c-.14-.18-.28-.36-.42-.56a9,9,0,0,1-1.61-4.74,5.88,5.88,0,0,1,7.07-5.38l2.33-1.45a54.75,54.75,0,0,0,8.68-5.7A54.66,54.66,0,0,0,48.31,192.62Z"/><path class="cls-22" d="M29.18,207.81a9.23,9.23,0,0,1,2.57,2.09,9.49,9.49,0,0,1,1.57,2.49"/><path class="cls-23" d="M143.08,167.47a2.6,2.6,0,0,1,4.66-1.77c.21,3.82.58,7.38,1,10.69v.11c.54,3.73,1.22,7.2,2,10.41a3.62,3.62,0,0,1-3.3,1.45,3.73,3.73,0,0,1-2.65-1.77,91.48,91.48,0,0,1-1.53-11.17C143.11,172.6,143.05,169.94,143.08,167.47Z"/><path class="cls-23" d="M150.8,186.91a24.47,24.47,0,0,0,8.67,3.3,24.81,24.81,0,0,0,12.38-1.05,5.91,5.91,0,0,0,2.89-3,6,6,0,0,0-.16-4.9,5.43,5.43,0,0,0,.8-9,6.7,6.7,0,0,0,2.66-4.18,6.84,6.84,0,0,0,.08-1.17,6,6,0,0,0-5.2-5.58,48.8,48.8,0,0,0-6.54-.56,48.08,48.08,0,0,0-5.94.24,16.66,16.66,0,0,0-.64-19c-2.22-1.82-4.9-2.08-6.43-.88a2.68,2.68,0,0,0-.28.25,2.81,2.81,0,0,0-.57,3A23.85,23.85,0,0,1,154,152a23.24,23.24,0,0,1-.64,6.18,21,21,0,0,1-1.69,3.14,20.44,20.44,0,0,1-3.94,4.42c.1,3,.35,6.19.81,9.64A95.49,95.49,0,0,0,150.8,186.91Z"/><path class="cls-24" d="M175.38,172.29a14.82,14.82,0,0,1-10.28.4,12.51,12.51,0,0,1-2.35-1.1,4.16,4.16,0,0,1-2-4.7,4.43,4.43,0,0,1,.17-.47,5.21,5.21,0,0,1,5.55-2.81"/><path class="cls-24" d="M174.58,181.29a20.83,20.83,0,0,1-6,.48,20.4,20.4,0,0,1-4.5-.8,5.84,5.84,0,0,1-4.17-4.62v0a9.74,9.74,0,0,1,1.12-6.11"/><path class="cls-24" d="M158.27,163.13A11.43,11.43,0,0,1,157.22,178"/><path class="cls-24" d="M171.85,189.16a13.57,13.57,0,0,1-7.55-.16,13.14,13.14,0,0,1-4.11-2.15,4,4,0,0,1-1.57-2.49,3.68,3.68,0,0,1,0-.82,4.44,4.44,0,0,1,3.38-3.7"/></g></g></svg>